<svg xmlns="http://www.w3.org/2000/svg" xmlns:xlink="http://www.w3.org/1999/xlink" viewBox="0 0 1200 640" width="100%" preserveAspectRatio="xMidYMid meet" role="img" aria-label="Sanyam Singla - GitHub Profile Hero">
  <defs>
    <!-- Background -->
    <linearGradient id="bgGrad" x1="0%" y1="0%" x2="100%" y2="100%">
      <stop offset="0%" stop-color="#010104"/>
      <stop offset="40%" stop-color="#0a0f1e"/>
      <stop offset="100%" stop-color="#02040a"/>
    </linearGradient>

    <!-- Animated Neon Gradients -->
    <linearGradient id="neonCyan" x1="0%" y1="0%" x2="100%" y2="0%">
      <stop offset="0%" stop-color="#00f5d4"/>
      <stop offset="50%" stop-color="#22d3ee"/>
      <stop offset="100%" stop-color="#00f5d4"/>
      <animate attributeName="x1" values="-100%;200%;-100%" dur="4s" repeatCount="indefinite"/>
      <animate attributeName="x2" values="0%;300%;0%" dur="4s" repeatCount="indefinite"/>
    </linearGradient>

    <linearGradient id="neonViolet" x1="0%" y1="0%" x2="100%" y2="100%">
      <stop offset="0%" stop-color="#7c3aed"/>
      <stop offset="50%" stop-color="#f472b6"/>
      <stop offset="100%" stop-color="#7c3aed"/>
      <animate attributeName="x1" values="0%;100%;0%" dur="6s" repeatCount="indefinite"/>
      <animate attributeName="y1" values="0%;100%;0%" dur="6s" repeatCount="indefinite"/>
    </linearGradient>

    <linearGradient id="neonEmerald" x1="0%" y1="0%" x2="100%" y2="0%">
      <stop offset="0%" stop-color="#10b981"/>
      <stop offset="50%" stop-color="#34d399"/>
      <stop offset="100%" stop-color="#10b981"/>
      <animate attributeName="x1" values="200%;-100%;200%" dur="5s" repeatCount="indefinite"/>
    </linearGradient>

    <!-- Card Glass -->
    <linearGradient id="glass" x1="0%" y1="0%" x2="100%" y2="100%">
      <stop offset="0%" stop-color="#0f172a" stop-opacity="0.9"/>
      <stop offset="50%" stop-color="#1e293b" stop-opacity="0.85"/>
      <stop offset="100%" stop-color="#0f172a" stop-opacity="0.9"/>
    </linearGradient>

    <linearGradient id="borderShift" x1="0%" y1="0%" x2="100%" y2="100%">
      <stop offset="0%" stop-color="#00f5d4" stop-opacity="0.8">
        <animate attributeName="stop-color" values="#00f5d4;#7c3aed;#f472b6;#10b981;#00f5d4" dur="8s" repeatCount="indefinite"/>
      </stop>
      <stop offset="50%" stop-color="#7c3aed" stop-opacity="0.6">
        <animate attributeName="stop-color" values="#7c3aed;#f472b6;#10b981;#00f5d4;#7c3aed" dur="8s" repeatCount="indefinite"/>
      </stop>
      <stop offset="100%" stop-color="#10b981" stop-opacity="0.8">
        <animate attributeName="stop-color" values="#10b981;#00f5d4;#7c3aed;#f472b6;#10b981" dur="8s" repeatCount="indefinite"/>
      </stop>
    </linearGradient>

    <!-- Filters -->
    <filter id="shadow" x="-30%" y="-30%" width="160%" height="160%">
      <feDropShadow dx="0" dy="16" stdDeviation="24" flood-color="#000" flood-opacity="0.6"/>
    </filter>
    <filter id="glow" x="-50%" y="-50%" width="200%" height="200%">
      <feGaussianBlur stdDeviation="6" result="blur"/>
      <feMerge><feMergeNode in="blur"/><feMergeNode in="SourceGraphic"/></feMerge>
    </filter>
    <filter id="heavyGlow" x="-50%" y="-50%" width="200%" height="200%">
      <feGaussianBlur stdDeviation="12" result="blur"/>
      <feMerge><feMergeNode in="blur"/><feMergeNode in="blur"/><feMergeNode in="SourceGraphic"/></feMerge>
    </filter>
    <filter id="noise" x="0" y="0" width="100%" height="100%">
      <feTurbulence type="fractalNoise" baseFrequency="0.9" numOctaves="3" seed="13"/>
      <feColorMatrix type="saturate" values="0"/>
      <feComponentTransfer><feFuncA type="table" tableValues="0 0.04"/></feComponentTransfer>
    </filter>

    <!-- Patterns -->
    <pattern id="grid" width="60" height="60" patternUnits="userSpaceOnUse">
      <path d="M 60 0 L 0 0 0 60" fill="none" stroke="#00f5d4" stroke-opacity="0.04" stroke-width="0.5"/>
    </pattern>
    <pattern id="dotGrid" width="20" height="20" patternUnits="userSpaceOnUse">
      <circle cx="1" cy="1" r="1" fill="#ffffff" opacity="0.06"/>
    </pattern>

    <!-- Masks -->
    <mask id="scanMask">
      <rect x="0" y="0" width="1200" height="640" fill="black"/>
      <rect x="0" y="-60" width="1200" height="60" fill="white">
        <animate attributeName="y" values="-60;700" dur="3s" repeatCount="indefinite"/>
      </rect>
    </mask>

    <clipPath id="cardClip">
      <rect x="24" y="24" width="1152" height="592" rx="24"/>
    </clipPath>

    <clipPath id="pixelClip">
      <rect x="80" y="100" width="280" height="280" rx="12"/>
    </clipPath>
  </defs>

  <!-- Base Layer -->
  <rect width="1200" height="640" fill="url(#bgGrad)"/>
  <rect width="1200" height="640" fill="url(#grid)"/>
  <rect width="1200" height="640" fill="url(#dotGrid)"/>

  <!-- Animated Ambient Blobs -->
  <circle cx="200" cy="200" r="300" fill="url(#neonCyan)" opacity="0.15">
    <animate attributeName="cx" values="200;400;200" dur="15s" repeatCount="indefinite"/>
    <animate attributeName="cy" values="200;400;200" dur="12s" repeatCount="indefinite"/>
    <animate attributeName="r" values="300;400;300" dur="10s" repeatCount="indefinite"/>
  </circle>
  <circle cx="1000" cy="400" r="280" fill="url(#neonViolet)" opacity="0.12">
    <animate attributeName="cx" values="1000;800;1000" dur="18s" repeatCount="indefinite"/>
    <animate attributeName="cy" values="400;200;400" dur="14s" repeatCount="indefinite"/>
  </circle>
  <circle cx="600" cy="320" r="200" fill="url(#neonEmerald)" opacity="0.08">
    <animate attributeName="r" values="200;350;200" dur="8s" repeatCount="indefinite"/>
  </circle>

  <!-- Noise Overlay -->
  <rect width="1200" height="640" fill="#ffffff" opacity="0.3" filter="url(#noise)" style="mix-blend-mode: overlay;"/>

  <!-- Main Card Container -->
  <rect x="24" y="24" width="1152" height="592" rx="24" fill="url(#glass)" filter="url(#shadow)"/>
  <rect x="24" y="24" width="1152" height="592" rx="24" fill="none" stroke="url(#borderShift)" stroke-width="2"/>
  <rect x="24" y="24" width="1152" height="592" rx="24" fill="#00f5d4" opacity="0.03" mask="url(#scanMask)"/>

  <!-- Corner Brackets (Animated) -->
  <g stroke="url(#neonCyan)" stroke-width="2" fill="none" stroke-linecap="round" opacity="0.8">
    <path d="M 40 80 v-40 h40">
      <animate attributeName="opacity" values="0.8;0.3;0.8" dur="3s" repeatCount="indefinite"/>
    </path>
    <path d="M 1160 80 v-40 h-40">
      <animate attributeName="opacity" values="0.8;0.3;0.8" dur="3s" begin="0.75s" repeatCount="indefinite"/>
    </path>
    <path d="M 40 560 v40 h40">
      <animate attributeName="opacity" values="0.8;0.3;0.8" dur="3s" begin="1.5s" repeatCount="indefinite"/>
    </path>
    <path d="M 1160 560 v40 h-40">
      <animate attributeName="opacity" values="0.8;0.3;0.8" dur="3s" begin="2.25s" repeatCount="indefinite"/>
    </path>
  </g>

  <!-- ═══════════════════════════════════════════════ -->
  <!-- LEFT PANEL: Pixel Avatar & Terminal           -->
  <!-- ═══════════════════════════════════════════════ -->

  <!-- Left Panel Background -->
  <rect x="40" y="40" width="360" height="560" rx="16" fill="#0b1220" fill-opacity="0.5" stroke="#ffffff" stroke-opacity="0.06"/>
  <rect x="40" y="40" width="360" height="560" rx="16" fill="none" stroke="url(#neonCyan)" stroke-opacity="0.2" stroke-width="1"/>

  <!-- Terminal Header -->
  <g transform="translate(64, 64)" opacity="0">
    <animate attributeName="opacity" values="0;1" dur="0.5s" begin="0.3s" fill="freeze"/>
    <rect x="0" y="0" width="312" height="32" rx="10" fill="#0b1220" fill-opacity="0.8" stroke="#ffffff" stroke-opacity="0.08"/>
    <circle cx="14" cy="16" r="4.5" fill="#f43f5e"/>
    <circle cx="30" cy="16" r="4.5" fill="#f59e0b"/>
    <circle cx="46" cy="16" r="4.5" fill="#10b981"/>
    <text x="66" y="20" fill="#64748b" font-family="ui-monospace, SFMono-Regular, Consolas, monospace" font-size="10">avatar.exe — rendering</text>
  </g>

  <!-- Pixel Avatar Container -->
  <g transform="translate(80, 112)" opacity="0">
    <animate attributeName="opacity" values="0;1" dur="0.6s" begin="0.6s" fill="freeze"/>
    
    <!-- Outer Glow Ring -->
    <circle cx="140" cy="140" r="155" fill="none" stroke="url(#neonCyan)" stroke-width="1" opacity="0.4">
      <animate attributeName="r" values="155;165;155" dur="4s" repeatCount="indefinite"/>
      <animate attributeName="opacity" values="0.4;0.2;0.4" dur="4s" repeatCount="indefinite"/>
    </circle>
    <circle cx="140" cy="140" r="148" fill="none" stroke="url(#neonViolet)" stroke-width="1.5" stroke-dasharray="8 6" opacity="0.6">
      <animateTransform attributeName="transform" type="rotate" values="0 140 140;360 140 140" dur="25s" repeatCount="indefinite"/>
    </circle>

    <!-- Pixel Face Grid (20x20 cells, 14px each = 280px) -->
    <g clip-path="url(#pixelClip)" transform="translate(0,0)">
      <!-- Background of avatar area -->
      <rect x="0" y="0" width="280" height="280" fill="#0a0f1e"/>
      
      <!-- Phase 1: Outline/Shadow (darker pixels) -->
      <g fill="#1e293b">
        <rect x="70" y="20" width="140" height="14" opacity="0">
          <animate attributeName="opacity" values="0;1" dur="0.1s" begin="1.0s" fill="freeze"/>
        </rect>
        <rect x="56" y="34" width="168" height="14" opacity="0">
          <animate attributeName="opacity" values="0;1" dur="0.1s" begin="1.05s" fill="freeze"/>
        </rect>
        <rect x="42" y="48" width="196" height="14" opacity="0">
          <animate attributeName="opacity" values="0;1" dur="0.1s" begin="1.1s" fill="freeze"/>
        </rect>
        <rect x="42" y="62" width="28" height="126" opacity="0">
          <animate attributeName="opacity" values="0;1" dur="0.1s" begin="1.15s" fill="freeze"/>
        </rect>
        <rect x="210" y="62" width="28" height="126" opacity="0">
          <animate attributeName="opacity" values="0;1" dur="0.1s" begin="1.2s" fill="freeze"/>
        </rect>
        <rect x="70" y="188" width="140" height="14" opacity="0">
          <animate attributeName="opacity" values="0;1" dur="0.1s" begin="1.25s" fill="freeze"/>
        </rect>
        <rect x="84" y="202" width="112" height="14" opacity="0">
          <animate attributeName="opacity" values="0;1" dur="0.1s" begin="1.3s" fill="freeze"/>
        </rect>
        <rect x="98" y="216" width="84" height="14" opacity="0">
          <animate attributeName="opacity" values="0;1" dur="0.1s" begin="1.35s" fill="freeze"/>
        </rect>
      </g>

      <!-- Phase 2: Skin Base -->
      <g fill="#d4a373">
        <rect x="70" y="62" width="140" height="126" opacity="0">
          <animate attributeName="opacity" values="0;1" dur="0.1s" begin="1.4s" fill="freeze"/>
        </rect>
        <rect x="56" y="76" width="14" height="98" opacity="0">
          <animate attributeName="opacity" values="0;1" dur="0.1s" begin="1.42s" fill="freeze"/>
        </rect>
        <rect x="210" y="76" width="14" height="98" opacity="0">
          <animate attributeName="opacity" values="0;1" dur="0.1s" begin="1.44s" fill="freeze"/>
        </rect>
        <rect x="84" y="188" width="112" height="14" opacity="0">
          <animate attributeName="opacity" values="0;1" dur="0.1s" begin="1.46s" fill="freeze"/>
        </rect>
        <rect x="98" y="202" width="84" height="14" opacity="0">
          <animate attributeName="opacity" values="0;1" dur="0.1s" begin="1.48s" fill="freeze"/>
        </rect>
      </g>

      <!-- Phase 3: Hair (Top) -->
      <g fill="#0f172a">
        <rect x="84" y="34" width="112" height="14" opacity="0">
          <animate attributeName="opacity" values="0;1" dur="0.1s" begin="1.5s" fill="freeze"/>
        </rect>
        <rect x="98" y="48" width="84" height="14" opacity="0">
          <animate attributeName="opacity" values="0;1" dur="0.1s" begin="1.52s" fill="freeze"/>
        </rect>
        <rect x="70" y="62" width="28" height="14" opacity="0">
          <animate attributeName="opacity" values="0;1" dur="0.1s" begin="1.54s" fill="freeze"/>
        </rect>
        <rect x="182" y="62" width="28" height="14" opacity="0">
          <animate attributeName="opacity" values="0;1" dur="0.1s" begin="1.56s" fill="freeze"/>
        </rect>
        <rect x="56" y="48" width="42" height="14" opacity="0">
          <animate attributeName="opacity" values="0;1" dur="0.1s" begin="1.58s" fill="freeze"/>
        </rect>
        <rect x="182" y="48" width="42" height="14" opacity="0">
          <animate attributeName="opacity" values="0;1" dur="0.1s" begin="1.6s" fill="freeze"/>
        </rect>
      </g>

      <!-- Phase 4: Eyes (Cyberpunk glowing) -->
      <g>
        <rect x="98" y="104" width="28" height="14" fill="#f8fafc" opacity="0">
          <animate attributeName="opacity" values="0;1" dur="0.1s" begin="1.7s" fill="freeze"/>
        </rect>
        <rect x="154" y="104" width="28" height="14" fill="#f8fafc" opacity="0">
          <animate attributeName="opacity" values="0;1" dur="0.1s" begin="1.72s" fill="freeze"/>
        </rect>
        <rect x="105" y="104" width="14" height="14" fill="#00f5d4" opacity="0" filter="url(#glow)">
          <animate attributeName="opacity" values="0;1" dur="0.15s" begin="1.8s" fill="freeze"/>
          <animate attributeName="fill" values="#00f5d4;#22d3ee;#00f5d4" dur="2s" repeatCount="indefinite" begin="2s"/>
        </rect>
        <rect x="161" y="104" width="14" height="14" fill="#00f5d4" opacity="0" filter="url(#glow)">
          <animate attributeName="opacity" values="0;1" dur="0.15s" begin="1.82s" fill="freeze"/>
          <animate attributeName="fill" values="#00f5d4;#22d3ee;#00f5d4" dur="2s" repeatCount="indefinite" begin="2.2s"/>
        </rect>
        <rect x="108" y="104" width="7" height="14" fill="#02040a" opacity="0">
          <animate attributeName="opacity" values="0;1" dur="0.1s" begin="1.9s" fill="freeze"/>
        </rect>
        <rect x="164" y="104" width="7" height="14" fill="#02040a" opacity="0">
          <animate attributeName="opacity" values="0;1" dur="0.1s" begin="1.92s" fill="freeze"/>
        </rect>
      </g>

      <!-- Phase 5: Eyebrows -->
      <g fill="#1e293b">
        <rect x="91" y="90" width="42" height="7" opacity="0">
          <animate attributeName="opacity" values="0;1" dur="0.1s" begin="1.95s" fill="freeze"/>
        </rect>
        <rect x="147" y="90" width="42" height="7" opacity="0">
          <animate attributeName="opacity" values="0;1" dur="0.1s" begin="1.97s" fill="freeze"/>
        </rect>
      </g>

      <!-- Phase 6: Nose -->
      <g fill="#b08968">
        <rect x="133" y="118" width="14" height="28" opacity="0">
          <animate attributeName="opacity" values="0;1" dur="0.1s" begin="2.0s" fill="freeze"/>
        </rect>
        <rect x="126" y="146" width="28" height="7" opacity="0">
          <animate attributeName="opacity" values="0;1" dur="0.1s" begin="2.02s" fill="freeze"/>
        </rect>
      </g>

      <!-- Phase 7: Mouth -->
      <g>
        <rect x="112" y="160" width="56" height="7" fill="#9d4edd" opacity="0">
          <animate attributeName="opacity" values="0;1" dur="0.1s" begin="2.05s" fill="freeze"/>
        </rect>
        <rect x="119" y="167" width="42" height="7" fill="#7b2cbf" opacity="0">
          <animate attributeName="opacity" values="0;1" dur="0.1s" begin="2.07s" fill="freeze"/>
        </rect>
      </g>

      <!-- Phase 8: Ear details -->
      <g fill="#d4a373">
        <rect x="42" y="90" width="14" height="56" opacity="0">
          <animate attributeName="opacity" values="0;1" dur="0.1s" begin="2.1s" fill="freeze"/>
        </rect>
        <rect x="224" y="90" width="14" height="56" opacity="0">
          <animate attributeName="opacity" values="0;1" dur="0.1s" begin="2.12s" fill="freeze"/>
        </rect>
      </g>

      <!-- Phase 9: Neck -->
      <g fill="#d4a373">
        <rect x="112" y="216" width="56" height="28" opacity="0">
          <animate attributeName="opacity" values="0;1" dur="0.1s" begin="2.15s" fill="freeze"/>
        </rect>
        <rect x="98" y="244" width="84" height="14" opacity="0">
          <animate attributeName="opacity" values="0;1" dur="0.1s" begin="2.17s" fill="freeze"/>
        </rect>
      </g>

      <!-- Phase 10: Shirt/Collar -->
      <g fill="#0f172a">
        <rect x="70" y="244" width="28" height="28" opacity="0">
          <animate attributeName="opacity" values="0;1" dur="0.1s" begin="2.2s" fill="freeze"/>
        </rect>
        <rect x="182" y="244" width="28" height="28" opacity="0">
          <animate attributeName="opacity" values="0;1" dur="0.1s" begin="2.22s" fill="freeze"/>
        </rect>
        <rect x="84" y="258" width="112" height="14" opacity="0">
          <animate attributeName="opacity" values="0;1" dur="0.1s" begin="2.24s" fill="freeze"/>
        </rect>
      </g>

      <!-- Glitch overlay that flickers occasionally -->
      <rect x="0" y="0" width="280" height="280" fill="#00f5d4" opacity="0" style="mix-blend-mode: overlay;">
        <animate attributeName="opacity" values="0;0.08;0;0;0.05;0" keyTimes="0;0.02;0.04;0.9;0.92;1" dur="4s" repeatCount="indefinite" begin="3s"/>
      </rect>
    </g>

    <!-- Avatar Frame -->
    <rect x="0" y="0" width="280" height="280" rx="12" fill="none" stroke="url(#neonCyan)" stroke-width="2" opacity="0.8"/>
    <rect x="-4" y="-4" width="288" height="288" rx="16" fill="none" stroke="url(#neonViolet)" stroke-width="1" stroke-dasharray="6 4" opacity="0.5">
      <animateTransform attributeName="transform" type="rotate" values="0 140 140;360 140 140" dur="30s" repeatCount="indefinite"/>
    </rect>

    <!-- Scanline on avatar -->
    <rect x="0" y="0" width="280" height="280" rx="12" fill="#00f5d4" opacity="0.05" mask="url(#scanMask)"/>
  </g>

  <!-- Terminal Status Below Avatar -->
  <g transform="translate(80, 420)" opacity="0">
    <animate attributeName="opacity" values="0;1" dur="0.5s" begin="2.5s" fill="freeze"/>
    <text x="0" y="0" fill="#94a3b8" font-family="ui-monospace, SFMono-Regular, Consolas, monospace" font-size="11">
      <tspan x="0" dy="0">┌─[sanyam@dev]</tspan>
      <tspan x="0" dy="16">│ status: online</tspan>
      <tspan x="0" dy="16">│ role: AI Engineer</tspan>
      <tspan x="0" dy="16">│ loc: Mohali, IN</tspan>
      <tspan x="0" dy="16">└─▶</tspan>
    </text>
    <rect x="40" y="64" width="8" height="12" fill="#00f5d4">
      <animate attributeName="opacity" values="0;1;0;1" dur="1s" repeatCount="indefinite" begin="3s"/>
    </rect>
  </g>

  <!-- Live Status Badge -->
  <g transform="translate(220, 410)" opacity="0">
    <animate attributeName="opacity" values="0;1" dur="0.5s" begin="2.7s" fill="freeze"/>
    <rect x="-60" y="-10" width="120" height="20" rx="10" fill="#0b1220" fill-opacity="0.9" stroke="#10b981" stroke-opacity="0.5"/>
    <rect x="-60" y="-10" width="120" height="20" rx="10" fill="url(#pillGrad)"/>
    <circle cx="-45" cy="0" r="3" fill="#10b981">
      <animate attributeName="opacity" values="1;0.2;1" dur="1.5s" repeatCount="indefinite"/>
    </circle>
    <text x="-32" y="4" fill="#10b981" font-family="ui-monospace, SFMono-Regular, Consolas, monospace" font-size="9" letter-spacing="0.5">OPEN TO WORK</text>
  </g>

  <!-- ═══════════════════════════════════════════════ -->
  <!-- RIGHT PANEL: Info & Content                   -->
  <!-- ═══════════════════════════════════════════════ -->

  <!-- Right Panel Background -->
  <rect x="424" y="40" width="736" height="560" rx="16" fill="#0b1220" fill-opacity="0.3" stroke="#ffffff" stroke-opacity="0.04"/>
  <rect x="424" y="40" width="736" height="560" rx="16" fill="none" stroke="url(#neonViolet)" stroke-opacity="0.15" stroke-width="1"/>

  <!-- Window Title Bar -->
  <g transform="translate(448, 64)" opacity="0">
    <animate attributeName="opacity" values="0;1" dur="0.5s" begin="0.4s" fill="freeze"/>
    <rect x="0" y="0" width="340" height="32" rx="10" fill="#0b1220" fill-opacity="0.8" stroke="#ffffff" stroke-opacity="0.08"/>
    <circle cx="14" cy="16" r="4.5" fill="#f43f5e"/>
    <circle cx="30" cy="16" r="4.5" fill="#f59e0b"/>
    <circle cx="46" cy="16" r="4.5" fill="#10b981"/>
    <text x="66" y="20" fill="#64748b" font-family="ui-monospace, SFMono-Regular, Consolas, monospace" font-size="10">sanyam@github: ~/profile.md</text>
  </g>

  <!-- Greeting -->
  <text x="448" y="140" fill="#f8fafc" font-family="ui-monospace, SFMono-Regular, Consolas, monospace" font-size="16" opacity="0">
    <animate attributeName="opacity" values="0;1" dur="0.4s" begin="0.8s" fill="freeze"/>
    Hi there 👋 I'm
  </text>

  <!-- Name with Typewriter Effect -->
  <g transform="translate(448, 186)" opacity="0">
    <animate attributeName="opacity" values="0;1" dur="0.3s" begin="1.0s" fill="freeze"/>
    <text x="0" y="0" fill="url(#neonCyan)" font-family="ui-monospace, SFMono-Regular, Consolas, monospace" font-size="40" font-weight="700" letter-spacing="2" filter="url(#heavyGlow)">
      Sanyam Singla
    </text>
    <rect x="325" y="-32" width="4" height="36" fill="#00f5d4">
      <animate attributeName="opacity" values="0;1;0;1" dur="1s" repeatCount="indefinite" begin="1.5s"/>
    </rect>
  </g>

  <!-- Cycling Roles with Glitch -->
  <g transform="translate(448, 230)" opacity="0">
    <animate attributeName="opacity" values="0;1" dur="0.4s" begin="1.6s" fill="freeze"/>
    <text x="0" y="0" fill="#00f5d4" font-family="ui-monospace, SFMono-Regular, Consolas, monospace" font-size="20" font-weight="600" opacity="0" filter="url(#glow)">
      <animate attributeName="opacity" values="0;1;1;0;0" keyTimes="0;0.05;0.28;0.33;1" dur="9s" begin="2s" repeatCount="indefinite"/>
      &gt; AI Engineer &amp; Researcher
    </text>
    <text x="0" y="0" fill="#f472b6" font-family="ui-monospace, SFMono-Regular, Consolas, monospace" font-size="20" font-weight="600" opacity="0" filter="url(#glow)">
      <animate attributeName="opacity" values="0;0;1;1;0;0" keyTimes="0;0.3;0.35;0.61;0.66;1" dur="9s" begin="2s" repeatCount="indefinite"/>
      &gt; Full Stack Developer
    </text>
    <text x="0" y="0" fill="#10b981" font-family="ui-monospace, SFMono-Regular, Consolas, monospace" font-size="20" font-weight="600" opacity="0" filter="url(#glow)">
      <animate attributeName="opacity" values="0;0;0;1;1;0" keyTimes="0;0.63;0.68;0.73;0.95;1" dur="9s" begin="2s" repeatCount="indefinite"/>
      &gt; Data Analyst &amp; Open Source
    </text>
  </g>

  <!-- Divider -->
  <rect x="448" y="260" width="0" height="2" fill="url(#neonCyan)" opacity="0.7">
    <animate attributeName="width" values="0;100" dur="0.8s" begin="2.2s" fill="freeze"/>
  </rect>

  <!-- Info Grid -->
  <g transform="translate(448, 290)" font-family="ui-monospace, SFMono-Regular, Consolas, monospace" font-size="12">
    <g opacity="0">
      <animate attributeName="opacity" values="0;1" dur="0.4s" begin="2.6s" fill="freeze"/>
      <text x="0" y="0" fill="#475569">Education</text>
      <text x="110" y="0" fill="#f8fafc">B.E. Computer Science</text>
      <text x="110" y="16" fill="#94a3b8" font-size="10">Chandigarh University, Mohali</text>
    </g>
    <g opacity="0">
      <animate attributeName="opacity" values="0;1" dur="0.4s" begin="2.8s" fill="freeze"/>
      <text x="0" y="48" fill="#475569">Location</text>
      <text x="110" y="48" fill="#f8fafc">Mohali, Punjab, India</text>
    </g>
    <g opacity="0">
      <animate attributeName="opacity" values="0;1" dur="0.4s" begin="3.0s" fill="freeze"/>
      <text x="0" y="80" fill="#475569">Focus</text>
      <text x="110" y="80" fill="#f8fafc">LLM Systems, Prompt Engineering</text>
      <text x="110" y="96" fill="#94a3b8" font-size="10">Predictive Modeling &amp; AI-native Products</text>
    </g>
    <g opacity="0">
      <animate attributeName="opacity" values="0;1" dur="0.4s" begin="3.2s" fill="freeze"/>
      <text x="0" y="128" fill="#475569">Experience</text>
      <text x="110" y="128" fill="#f8fafc">SDE Intern @ CU TBI x Collabrat</text>
      <text x="110" y="144" fill="#94a3b8" font-size="10">4 full-stack modules, 30% rework cut</text>
    </g>
    <g opacity="0">
      <animate attributeName="opacity" values="0;1" dur="0.4s" begin="3.4s" fill="freeze"/>
      <text x="0" y="176" fill="#475569">Email</text>
      <a href="mailto:sanyamsingla36@gmail.com" target="_blank">
        <text x="110" y="176" fill="#00f5d4">sanyamsingla36@gmail.com</text>
      </a>
    </g>
    <g opacity="0">
      <animate attributeName="opacity" values="0;1" dur="0.4s" begin="3.6s" fill="freeze"/>
      <text x="0" y="200" fill="#475569">GitHub</text>
      <a href="https://github.com/SAM10101010" target="_blank">
        <text x="110" y="200" fill="#00f5d4">github.com/SAM10101010</text>
      </a>
    </g>
    <g opacity="0">
      <animate attributeName="opacity" values="0;1" dur="0.4s" begin="3.8s" fill="freeze"/>
      <text x="0" y="224" fill="#475569">LinkedIn</text>
      <a href="https://linkedin.com/in/sanyam-singla-41673b292" target="_blank">
        <text x="110" y="224" fill="#00f5d4">linkedin.com/in/sanyam-singla</text>
      </a>
    </g>
    <g opacity="0">
      <animate attributeName="opacity" values="0;1" dur="0.4s" begin="4.0s" fill="freeze"/>
      <text x="0" y="248" fill="#475569">Phone</text>
      <a href="tel:+918053157244">
        <text x="110" y="248" fill="#00f5d4">+91 80531 57244</text>
      </a>
    </g>
  </g>

  <!-- Skills Section with Progress Bars -->
  <g transform="translate(448, 570)" opacity="0">
    <animate attributeName="opacity" values="0;1" dur="0.5s" begin="4.2s" fill="freeze"/>
    <text x="0" y="0" fill="#f8fafc" font-family="ui-monospace, SFMono-Regular, Consolas, monospace" font-size="13" letter-spacing="1">Tech Stack</text>
    
    <g transform="translate(0, 20)">
      <rect x="0" y="0" width="100" height="4" rx="2" fill="#1e293b"/>
      <rect x="0" y="0" width="0" height="4" rx="2" fill="url(#neonCyan)">
        <animate attributeName="width" values="0;92" dur="0.8s" begin="4.5s" fill="freeze"/>
      </rect>
      <text x="0" y="-6" fill="#94a3b8" font-family="ui-monospace, SFMono-Regular, Consolas, monospace" font-size="9">Python</text>
      <text x="96" y="-6" fill="#00f5d4" font-family="ui-monospace, SFMono-Regular, Consolas, monospace" font-size="9" opacity="0">
        <animate attributeName="opacity" values="0;1" dur="0.3s" begin="5.1s" fill="freeze"/>
        92%
      </text>
    </g>
    <g transform="translate(120, 20)">
      <rect x="0" y="0" width="100" height="4" rx="2" fill="#1e293b"/>
      <rect x="0" y="0" width="0" height="4" rx="2" fill="url(#neonViolet)">
        <animate attributeName="width" values="0;88" dur="0.8s" begin="4.7s" fill="freeze"/>
      </rect>
      <text x="0" y="-6" fill="#94a3b8" font-family="ui-monospace, SFMono-Regular, Consolas, monospace" font-size="9">React/Next</text>
      <text x="92" y="-6" fill="#f472b6" font-family="ui-monospace, SFMono-Regular, Consolas, monospace" font-size="9" opacity="0">
        <animate attributeName="opacity" values="0;1" dur="0.3s" begin="5.3s" fill="freeze"/>
        88%
      </text>
    </g>
    <g transform="translate(240, 20)">
      <rect x="0" y="0" width="100" height="4" rx="2" fill="#1e293b"/>
      <rect x="0" y="0" width="0" height="4" rx="2" fill="url(#neonEmerald)">
        <animate attributeName="width" values="0;85" dur="0.8s" begin="4.9s" fill="freeze"/>
      </rect>
      <text x="0" y="-6" fill="#94a3b8" font-family="ui-monospace, SFMono-Regular, Consolas, monospace" font-size="9">Node.js</text>
      <text x="89" y="-6" fill="#10b981" font-family="ui-monospace, SFMono-Regular, Consolas, monospace" font-size="9" opacity="0">
        <animate attributeName="opacity" values="0;1" dur="0.3s" begin="5.5s" fill="freeze"/>
        85%
      </text>
    </g>
    <g transform="translate(360, 20)">
      <rect x="0" y="0" width="100" height="4" rx="2" fill="#1e293b"/>
      <rect x="0" y="0" width="0" height="4" rx="2" fill="url(#neonCyan)">
        <animate attributeName="width" values="0;90" dur="0.8s" begin="5.1s" fill="freeze"/>
      </rect>
      <text x="0" y="-6" fill="#94a3b8" font-family="ui-monospace, SFMono-Regular, Consolas, monospace" font-size="9">LLM APIs</text>
      <text x="94" y="-6" fill="#00f5d4" font-family="ui-monospace, SFMono-Regular, Consolas, monospace" font-size="9" opacity="0">
        <animate attributeName="opacity" values="0;1" dur="0.3s" begin="5.7s" fill="freeze"/>
        90%
      </text>
    </g>
    <g transform="translate(480, 20)">
      <rect x="0" y="0" width="100" height="4" rx="2" fill="#1e293b"/>
      <rect x="0" y="0" width="0" height="4" rx="2" fill="url(#neonViolet)">
        <animate attributeName="width" values="0;82" dur="0.8s" begin="5.3s" fill="freeze"/>
      </rect>
      <text x="0" y="-6" fill="#94a3b8" font-family="ui-monospace, SFMono-Regular, Consolas, monospace" font-size="9">SQL</text>
      <text x="86" y="-6" fill="#f472b6" font-family="ui-monospace, SFMono-Regular, Consolas, monospace" font-size="9" opacity="0">
        <animate attributeName="opacity" values="0;1" dur="0.3s" begin="5.9s" fill="freeze"/>
        82%
      </text>
    </g>
    <g transform="translate(600, 20)">
      <rect x="0" y="0" width="100" height="4" rx="2" fill="#1e293b"/>
      <rect x="0" y="0" width="0" height="4" rx="2" fill="url(#neonEmerald)">
        <animate attributeName="width" values="0;78" dur="0.8s" begin="5.5s" fill="freeze"/>
      </rect>
      <text x="0" y="-6" fill="#94a3b8" font-family="ui-monospace, SFMono-Regular, Consolas, monospace" font-size="9">Docker</text>
      <text x="82" y="-6" fill="#10b981" font-family="ui-monospace, SFMono-Regular, Consolas, monospace" font-size="9" opacity="0">
        <animate attributeName="opacity" values="0;1" dur="0.3s" begin="6.1s" fill="freeze"/>
        78%
      </text>
    </g>
  </g>

  <!-- Social Buttons (Bottom Right) -->
  <g transform="translate(960, 570)" opacity="0">
    <animate attributeName="opacity" values="0;1" dur="0.5s" begin="5.0s" fill="freeze"/>
    
    <a href="https://github.com/SAM10101010" target="_blank">
      <g transform="translate(0, 0)" filter="url(#softGlow)">
        <circle cx="0" cy="0" r="18" fill="#0b1220" fill-opacity="0.9" stroke="url(#neonCyan)" stroke-opacity="0.7"/>
        <circle cx="0" cy="0" r="18" fill="url(#pillGrad)"/>
        <path d="M0-8.4c-4.4 0-8 3.6-8 8 0 3.5 2.3 6.5 5.5 7.6.4.1.5-.2.5-.4v-1.4c-2.2.5-2.7-1.1-2.7-1.1-.4-.9-.9-1.2-.9-1.2-.7-.5.1-.5.1-.5.8.1 1.2.8 1.2.8.7 1.2 1.8.8 2.2.7.1-.5.3-.8.5-1-1.8-.2-3.6-.9-3.6-3.9 0-.9.3-1.6.8-2.1-.1-.2-.4-1 .1-2.1 0 0 .7-.2 2.2.8.6-.2 1.3-.3 2-.3.7 0 1.4.1 2 .3 1.5-1 2.2-.8 2.2-.8.4 1.1.1 1.9.1 2.1.5.6.8 1.3.8 2.1 0 3.1-1.8 3.7-3.6 3.9.3.3.5.8.5 1.4v2.1c0 .2.1.5.5.4 3.2-1.1 5.5-4.1 5.5-7.6 0-4.4-3.6-8-8-8z" fill="#f8fafc" transform="scale(0.85)"/>
        <animateTransform attributeName="transform" type="scale" values="1;1.06;1" dur="3.2s" repeatCount="indefinite" additive="sum"/>
      </g>
    </a>

    <a href="https://linkedin.com/in/sanyam-singla-41673b292" target="_blank">
      <g transform="translate(48, 0)" filter="url(#softGlow)">
        <circle cx="0" cy="0" r="18" fill="#0b1220" fill-opacity="0.9" stroke="url(#neonViolet)" stroke-opacity="0.7"/>
        <circle cx="0" cy="0" r="18" fill="url(#pillGrad)"/>
        <path d="M-6.5-7.5h3v3h-3zm0 4.5h3v9h-3zm4.5-4.5h3v1.5c.5-.9 1.6-1.7 3.2-1.7 3.4 0 4 2.2 4 5.1v5.1h-3v-4.5c0-1.1 0-2.6-1.6-2.6s-1.8 1.2-1.8 2.5v4.6h-3v-9z" fill="#f8fafc" transform="scale(0.8)"/>
        <animateTransform attributeName="transform" type="scale" values="1;1.06;1" dur="2.8s" repeatCount="indefinite" additive="sum"/>
      </g>
    </a>

    <a href="mailto:sanyamsingla36@gmail.com">
      <g transform="translate(96, 0)" filter="url(#softGlow)">
        <circle cx="0" cy="0" r="18" fill="#0b1220" fill-opacity="0.9" stroke="url(#neonEmerald)" stroke-opacity="0.7"/>
        <circle cx="0" cy="0" r="18" fill="url(#pillGrad)"/>
        <path d="M-9 -5.5h18v11h-18zm0 0l9 6 9-6" fill="none" stroke="#f8fafc" stroke-width="1.3" stroke-linecap="round" stroke-linejoin="round"/>
        <animateTransform attributeName="transform" type="scale" values="1;1.06;1" dur="3.5s" repeatCount="indefinite" additive="sum"/>
      </g>
    </a>

    <a href="tel:+918053157244">
      <g transform="translate(144, 0)" filter="url(#softGlow)">
        <circle cx="0" cy="0" r="18" fill="#0b1220" fill-opacity="0.9" stroke="url(#neonCyan)" stroke-opacity="0.7"/>
        <circle cx="0" cy="0" r="18" fill="url(#pillGrad)"/>
        <path d="M-5.5-8.5c-.5 0-1 .2-1.3.6l-2.2 2.2c-.8.8-.8 2.1 0 2.9l1.5 1.5c1.2 1.2 3.2 3.2 6.2 6.2 3 3 5 5 6.2 6.2l1.5 1.5c.8.8 2.1.8 2.9 0l2.2-2.2c.4-.4.6-.8.6-1.3s-.2-1-.6-1.3l-2-2c-.8-.8-2.1-.8-2.9 0l-.8.8c-1.2-1.2-3.2-3.2-6.2-6.2l.8-.8c.8-.8.8-2.1 0-2.9l-2-2c-.4-.4-.8-.6-1.3-.6z" fill="#f8fafc" transform="scale(0.8)"/>
        <animateTransform attributeName="transform" type="scale" values="1;1.06;1" dur="3s" repeatCount="indefinite" additive="sum"/>
      </g>
    </a>
  </g>

  <!-- Floating Particles -->
  <g opacity="0.5">
    <circle cx="120" cy="150" r="2" fill="#00f5d4">
      <animate attributeName="cy" values="150;220;150" dur="7s" repeatCount="indefinite"/>
      <animate attributeName="opacity" values="0.3;0.9;0.3" dur="3s" repeatCount="indefinite"/>
    </circle>
    <circle cx="380" cy="80" r="1.5" fill="#f472b6">
      <animate attributeName="cy" values="80;140;80" dur="6s" repeatCount="indefinite"/>
      <animate attributeName="cx" values="380;420;380" dur="4s" repeatCount="indefinite"/>
    </circle>
    <circle cx="900" cy="550" r="2.5" fill="#10b981">
      <animate attributeName="cy" values="550;480;550" dur="8s" repeatCount="indefinite"/>
      <animate attributeName="opacity" values="0.2;0.8;0.2" dur="4s" repeatCount="indefinite"/>
    </circle>
    <circle cx="1100" cy="200" r="1.5" fill="#00f5d4">
      <animate attributeName="cy" values="200;260;200" dur="5s" repeatCount="indefinite"/>
    </circle>
    <circle cx="600" cy="60" r="2" fill="#ffffff" opacity="0.3">
      <animate attributeName="cy" values="60;100;60" dur="9s" repeatCount="indefinite"/>
    </circle>
    <circle cx="400" cy="580" r="1.5" fill="#7c3aed">
      <animate attributeName="cy" values="580;520;580" dur="6s" repeatCount="indefinite"/>
    </circle>
    <circle cx="200" cy="500" r="2" fill="#10b981">
      <animate attributeName="cx" values="200;280;200" dur="8s" repeatCount="indefinite"/>
      <animate attributeName="opacity" values="0.2;0.7;0.2" dur="5s" repeatCount="indefinite"/>
    </circle>
  </g>

  <!-- Bottom Decorative Line -->
  <rect x="448" y="610" width="0" height="1" fill="url(#neonCyan)" opacity="0.5">
    <animate attributeName="width" values="0;712" dur="1.5s" begin="5.5s" fill="freeze"/>
  </rect>
</svg>
