<svg xmlns="http://www.w3.org/2000/svg" viewBox="0 0 1200 680" width="100%" preserveAspectRatio="xMidYMid meet" role="img" aria-label="Sanyam Singla - Super Unrealistic Holographic Profile">
  <defs>
    <!-- Core Prismatic Background -->
    <linearGradient id="bgGrad" x1="0%" y1="0%" x2="100%" y2="100%">
      <stop offset="0%" stop-color="#02030a"/>
      <stop offset="50%" stop-color="#050818"/>
      <stop offset="100%" stop-color="#01020a"/>
    </linearGradient>

    <!-- Volumetric Lighting Gradients -->
    <radialGradient id="godRay1" cx="50%" cy="0%" r="70%">
      <stop offset="0%" stop-color="#00f2ff" stop-opacity="0.25"/>
      <stop offset="100%" stop-color="#00f2ff" stop-opacity="0"/>
    </radialGradient>
    <radialGradient id="godRay2" cx="50%" cy="100%" r="70%">
      <stop offset="0%" stop-color="#bd00ff" stop-opacity="0.25"/>
      <stop offset="100%" stop-color="#bd00ff" stop-opacity="0"/>
    </radialGradient>

    <!-- Holographic Orbs & Core Energy -->
    <radialGradient id="orbCyan" cx="50%" cy="50%" r="50%">
      <stop offset="0%" stop-color="#00f2ff" stop-opacity="0.5"/>
      <stop offset="100%" stop-color="#00f2ff" stop-opacity="0"/>
    </radialGradient>
    <radialGradient id="orbMagenta" cx="50%" cy="50%" r="50%">
      <stop offset="0%" stop-color="#bd00ff" stop-opacity="0.4"/>
      <stop offset="100%" stop-color="#bd00ff" stop-opacity="0"/>
    </radialGradient>
    <radialGradient id="coreGrad" cx="50%" cy="50%" r="50%">
      <stop offset="0%" stop-color="#ffffff" stop-opacity="0.9"/>
      <stop offset="20%" stop-color="#00f2ff" stop-opacity="0.8"/>
      <stop offset="60%" stop-color="#bd00ff" stop-opacity="0.4"/>
      <stop offset="100%" stop-color="#bd00ff" stop-opacity="0"/>
    </radialGradient>

    <!-- Advanced Glassmorphism Surface -->
    <linearGradient id="hudGlass" x1="0%" y1="0%" x2="100%" y2="100%">
      <stop offset="0%" stop-color="#080d18" stop-opacity="0.6"/>
      <stop offset="50%" stop-color="#0d1320" stop-opacity="0.3"/>
      <stop offset="100%" stop-color="#05070c" stop-opacity="0.8"/>
    </linearGradient>

    <!-- Multi-layer Cyber Gradients -->
    <linearGradient id="cyberGrad" x1="0%" y1="0%" x2="100%" y2="0%">
      <stop offset="0%" stop-color="#00f2ff"/>
      <stop offset="40%" stop-color="#bd00ff"/>
      <stop offset="70%" stop-color="#00ff9d"/>
      <stop offset="100%" stop-color="#00f2ff"/>
      <animate attributeName="x1" values="-100%;200%;-100%" dur="6s" repeatCount="indefinite"/>
    </linearGradient>
    
    <linearGradient id="holoCurve" x1="0%" y1="0%" x2="100%" y2="100%">
      <stop offset="0%" stop-color="#00f2ff" stop-opacity="0.1"/>
      <stop offset="50%" stop-color="#ffffff" stop-opacity="0.05"/>
      <stop offset="100%" stop-color="#bd00ff" stop-opacity="0.1"/>
    </linearGradient>

    <!-- Shine Sweep -->
    <linearGradient id="shineSweep" x1="0%" y1="0%" x2="100%" y2="0%">
      <stop offset="0%" stop-color="#ffffff" stop-opacity="0"/>
      <stop offset="50%" stop-color="#ffffff" stop-opacity="0.6"/>
      <stop offset="100%" stop-color="#ffffff" stop-opacity="0"/>
    </linearGradient>

    <!-- Unreal Filters -->
    <filter id="bloom" x="-50%" y="-50%" width="200%" height="200%">
      <feGaussianBlur stdDeviation="6" result="blur1"/>
      <feGaussianBlur stdDeviation="12" result="blur2"/>
      <feGaussianBlur stdDeviation="24" result="blur3"/>
      <feMerge>
        <feMergeNode in="blur3"/>
        <feMergeNode in="blur2"/>
        <feMergeNode in="blur1"/>
        <feMergeNode in="SourceGraphic"/>
      </feMerge>
    </filter>
    <filter id="softGlow" x="-50%" y="-50%" width="200%" height="200%">
      <feGaussianBlur stdDeviation="3" result="blur"/>
      <feMerge><feMergeNode in="blur"/><feMergeNode in="SourceGraphic"/></feMerge>
    </filter>
    <filter id="chromaticGlitch" x="-10%" y="-10%" width="120%" height="120%">
      <feTurbulence type="fractalNoise" baseFrequency="0.8" numOctaves="2" seed="3" result="noise">
        <animate attributeName="baseFrequency" values="0.8; 1.2; 0.8" dur="2s" repeatCount="indefinite"/>
      </feTurbulence>
      <feColorMatrix type="matrix" values="1 0 0 0 0  0 0 0 0 0  0 0 0 0 0  0 0 0 0 1" in="noise" result="redNoise"/>
      <feDisplacementMap in="SourceGraphic" in2="redNoise" scale="4" xChannelSelector="R" yChannelSelector="G"/>
    </filter>
    <filter id="noise" x="0" y="0" width="100%" height="100%">
      <feTurbulence type="fractalNoise" baseFrequency="0.9" numOctaves="3" seed="5"/>
      <feColorMatrix type="saturate" values="0"/>
      <feComponentTransfer><feFuncA type="table" tableValues="0 0.04"/></feComponentTransfer>
    </filter>

    <!-- Clip Paths -->
    <clipPath id="avatarClip">
      <path d="M 0 -120 L 90 -80 L 120 0 L 90 80 L 0 120 L -90 80 L -120 0 L -90 -80 Z"/>
    </clipPath>
    <clipPath id="hudClip">
      <path d="M 40 40 H 1160 V 640 H 40 Z"/>
    </clipPath>

    <!-- Dynamic Patterns -->
    <pattern id="hexGrid" width="40" height="46" patternUnits="userSpaceOnUse">
      <path d="M 20 0 L 40 11.5 L 40 34.5 L 20 46 L 0 34.5 L 0 11.5 Z" fill="none" stroke="#ffffff" stroke-opacity="0.03" stroke-width="0.5"/>
    </pattern>
    <pattern id="dataStream" width="120" height="120" patternUnits="userSpaceOnUse">
      <path d="M 0 120 L 60 0 L 120 120" fill="none" stroke="#00f2ff" stroke-width="0.5" opacity="0.1"/>
      <circle cx="60" cy="0" r="1.5" fill="#00ff9d">
        <animate attributeName="cy" values="0;120" dur="3s" repeatCount="indefinite"/>
        <animate attributeName="opacity" values="0;1;0" dur="3s" repeatCount="indefinite"/>
      </circle>
      <circle cx="0" cy="120" r="1.5" fill="#bd00ff">
        <animate attributeName="cy" values="120;0" dur="4s" begin="1s" repeatCount="indefinite"/>
        <animate attributeName="opacity" values="0;1;0" dur="4s" begin="1s" repeatCount="indefinite"/>
      </circle>
      <animateTransform attributeName="patternTransform" type="translate" values="0,0; 120,120" dur="10s" repeatCount="indefinite"/>
    </pattern>

    <style>
      .btn-group { cursor: pointer; transition: filter 0.3s ease; }
      .btn-group:hover { filter: brightness(1.8) drop-shadow(0 0 15px currentColor); }
      .btn-group:hover .btn-shine { opacity: 1; animation: shine 1s linear infinite; }
      .btn-group:hover .btn-icon { transform: scale(1.1) rotate(5deg); }
      .btn-icon { transition: transform 0.3s ease; transform-origin: center; transform-box: fill-box; }
      @keyframes shine { 0% { transform: translateX(-100%); } 100% { transform: translateX(100%); } }
      @media (prefers-reduced-motion: reduce) {
        animate, animateTransform, animateMotion { display: none; }
        * { animation: none !important; }
      }
    </style>
  </defs>

  <!-- Background Layer -->
  <rect width="1200" height="680" fill="url(#bgGrad)"/>
  <rect width="1200" height="680" fill="url(#hexGrid)"/>
  <rect width="1200" height="680" fill="url(#dataStream)"/>

  <!-- Volumetric God Rays -->
  <polygon points="400,0 800,0 1000,680 200,680" fill="url(#godRay1)" opacity="0.3">
    <animateTransform attributeName="transform" type="skewX" values="-5;5;-5" dur="15s" repeatCount="indefinite"/>
  </polygon>
  <polygon points="300,680 900,680 1100,0 100,0" fill="url(#godRay2)" opacity="0.3">
    <animateTransform attributeName="transform" type="skewX" values="5;-5;5" dur="18s" repeatCount="indefinite"/>
  </polygon>

  <!-- Deep Ambient Orbs -->
  <circle cx="200" cy="150" r="350" fill="url(#orbCyan)" filter="url(#bloom)">
    <animate attributeName="cx" values="200;400;200" dur="25s" repeatCount="indefinite"/>
    <animate attributeName="cy" values="150;350;150" dur="20s" repeatCount="indefinite"/>
  </circle>
  <circle cx="1000" cy="550" r="400" fill="url(#orbMagenta)" filter="url(#bloom)">
    <animate attributeName="cx" values="1000;800;1000" dur="22s" repeatCount="indefinite"/>
    <animate attributeName="cy" values="550;350;550" dur="18s" repeatCount="indefinite"/>
  </circle>

  <!-- Global Noise Texture -->
  <rect width="1200" height="680" fill="#ffffff" opacity="0.2" filter="url(#noise)" style="mix-blend-mode: overlay;"/>

  <!-- Main Unreal HUD Frame (Glassmorphism + Complex Edges) -->
  <g opacity="0">
    <animate attributeName="opacity" values="0;1" dur="1s" fill="freeze"/>
    <!-- Glass Panel -->
    <path d="M 50 50 H 1150 V 630 H 50 Z" fill="url(#hudGlass)"/>
    <!-- Prismatic Border -->
    <path d="M 50 50 H 1150 V 630 H 50 Z" fill="none" stroke="url(#cyberGrad)" stroke-width="2" filter="url(#softGlow)"/>
    <!-- Internal Border Light -->
    <path d="M 55 55 H 1145 V 625 H 55 Z" fill="none" stroke="#ffffff" stroke-width="0.5" opacity="0.15"/>
    
    <!-- Corner Holographic Fittings -->
    <path d="M 40 90 L 50 50 L 90 40 L 80 80 Z" fill="url(#hudGlass)" stroke="url(#cyberGrad)" stroke-width="1.5"/>
    <path d="M 1160 90 L 1150 50 L 1110 40 L 1120 80 Z" fill="url(#hudGlass)" stroke="url(#cyberGrad)" stroke-width="1.5"/>
    <path d="M 40 590 L 50 630 L 90 640 L 80 600 Z" fill="url(#hudGlass)" stroke="url(#cyberGrad)" stroke-width="1.5"/>
    <path d="M 1160 590 L 1150 630 L 1110 640 L 1120 600 Z" fill="url(#hudGlass)" stroke="url(#cyberGrad)" stroke-width="1.5"/>
    
    <circle cx="65" cy="65" r="3" fill="#00f2ff"><animate attributeName="opacity" values="0.5;1;0.5" dur="2s" repeatCount="indefinite"/></circle>
    <circle cx="1135" cy="65" r="3" fill="#bd00ff"><animate attributeName="opacity" values="0.5;1;0.5" dur="2s" begin="0.5s" repeatCount="indefinite"/></circle>
    <circle cx="65" cy="615" r="3" fill="#00ff9d"><animate attributeName="opacity" values="0.5;1;0.5" dur="2s" begin="1s" repeatCount="indefinite"/></circle>
    <circle cx="1135" cy="615" r="3" fill="#00f2ff"><animate attributeName="opacity" values="0.5;1;0.5" dur="2s" begin="1.5s" repeatCount="indefinite"/></circle>
  </g>

  <!-- Animated HUD Circuit Traces & Data Packets -->
  <g clip-path="url(#hudClip)" opacity="0.4">
    <path d="M 50 120 L 30 120 L 30 220 L 50 220" fill="none" stroke="#00f2ff" stroke-width="1.5" stroke-dasharray="3 6">
      <animate attributeName="stroke-dashoffset" values="0;-9" dur="0.8s" repeatCount="indefinite"/>
    </path>
    <circle r="3" fill="#00f2ff" filter="url(#softGlow)">
      <animateMotion dur="2s" repeatCount="indefinite" path="M 50 120 L 30 120 L 30 220 L 50 220"/>
    </circle>

    <path d="M 1150 480 L 1170 480 L 1170 580 L 1150 580" fill="none" stroke="#bd00ff" stroke-width="1.5" stroke-dasharray="3 6">
      <animate attributeName="stroke-dashoffset" values="0;-9" dur="1.1s" repeatCount="indefinite"/>
    </path>
    <circle r="3" fill="#bd00ff" filter="url(#softGlow)">
      <animateMotion dur="2.5s" begin="0.5s" repeatCount="indefinite" path="M 1150 480 L 1170 480 L 1170 580 L 1150 580"/>
    </circle>
  </g>

  <!-- Top System Bar (Flight Deck Style) -->
  <g transform="translate(0, 0)">
    <rect x="50" y="50" width="1100" height="30" fill="#02040a" opacity="0.6"/>
    <rect x="50" y="50" width="1100" height="1" fill="url(#cyberGrad)"/>
    <text x="70" y="70" fill="#00f2ff" font-family="ui-monospace, monospace" font-size="12" letter-spacing="2">SYS://QUANTUM_PROFILE_INTERFACE_V4.0</text>
    <circle cx="1130" cy="65" r="4" fill="#00ff9d">
      <animate attributeName="opacity" values="1;0.3;1" dur="1.5s" repeatCount="indefinite"/>
      <animate attributeName="r" values="4;6;4" dur="1.5s" repeatCount="indefinite"/>
    </circle>
    <text x="1100" y="70" text-anchor="end" fill="#4a5568" font-family="ui-monospace, monospace" font-size="10">UPTIME: 99.99%</text>
    <text x="500" y="70" fill="#4a5568" font-family="ui-monospace, monospace" font-size="10">LATENCY: 12ms</text>
    <text x="600" y="70" fill="#4a5568" font-family="ui-monospace, monospace" font-size="10">FLUX: 8.4mW</text>
  </g>

  <!-- 3D Holographic Avatar Core (Left Panel) -->
  <g transform="translate(280, 350)">
    <!-- Holographic Containment Field -->
    <circle cx="0" cy="0" r="190" fill="none" stroke="#00f2ff" stroke-width="1" opacity="0.2">
      <animate attributeName="r" values="190;210;190" dur="4s" repeatCount="indefinite"/>
      <animate attributeName="opacity" values="0.2;0.5;0.2" dur="4s" repeatCount="indefinite"/>
    </circle>
    
    <!-- Faked 3D Tilting Rings -->
    <g transform="scale(1, 0.3)">
      <circle cx="0" cy="0" r="220" fill="none" stroke="#00ff9d" stroke-width="2" stroke-dasharray="2 10" opacity="0.6">
        <animateTransform attributeName="transform" type="rotate" values="0;360" dur="25s" repeatCount="indefinite"/>
      </circle>
    </g>
    <g transform="scale(0.3, 1)">
      <circle cx="0" cy="0" r="200" fill="none" stroke="#bd00ff" stroke-width="2" stroke-dasharray="4 8" opacity="0.6">
        <animateTransform attributeName="transform" type="rotate" values="360;0" dur="20s" repeatCount="indefinite"/>
      </circle>
    </g>
    
    <!-- Outer Rotating Rings -->
    <circle cx="0" cy="0" r="175" fill="none" stroke="#00f2ff" stroke-width="1" stroke-dasharray="20 10 5 10" opacity="0.8" filter="url(#softGlow)">
      <animateTransform attributeName="transform" type="rotate" values="360;0" dur="15s" repeatCount="indefinite"/>
    </circle>
    <circle cx="0" cy="0" r="160" fill="none" stroke="#bd00ff" stroke-width="0.5" stroke-dasharray="1 5" opacity="0.5">
      <animateTransform attributeName="transform" type="rotate" values="0;360" dur="10s" repeatCount="indefinite"/>
    </circle>

    <!-- Orbital Data Satellites -->
    <g>
      <animateTransform attributeName="transform" type="rotate" values="0;360" dur="8s" repeatCount="indefinite"/>
      <g transform="translate(175, 0)">
        <polygon points="0,-6 5,0 0,6 -5,0" fill="#00f2ff" filter="url(#bloom)"/>
        <line x1="0" y1="0" x2="25" y2="0" stroke="#00f2ff" stroke-width="1" opacity="0.5"/>
      </g>
    </g>
    <g>
      <animateTransform attributeName="transform" type="rotate" values="360;0" dur="6s" repeatCount="indefinite"/>
      <g transform="translate(-160, 0)">
        <circle cx="0" cy="0" r="4" fill="#bd00ff" filter="url(#bloom)"/>
        <line x1="0" y1="0" x2="-20" y2="0" stroke="#bd00ff" stroke-width="1" opacity="0.5"/>
      </g>
    </g>

    <!-- Pulsing Core Energy -->
    <circle cx="0" cy="0" r="40" fill="url(#coreGrad)" opacity="0.8">
      <animate attributeName="r" values="30;50;30" dur="2s" repeatCount="indefinite"/>
      <animate attributeName="opacity" values="0.4;0.8;0.4" dur="2s" repeatCount="indefinite"/>
    </circle>

    <!-- Hexagonal Frame (Heavy Duty) -->
    <path d="M 0 -150 L 130 -75 L 130 75 L 0 150 L -130 75 L -130 -75 Z" fill="#030508" opacity="0.9" stroke="url(#cyberGrad)" stroke-width="3" filter="url(#bloom)"/>
    <path d="M 0 -140 L 120 -70 L 120 70 L 0 140 L -120 70 L -120 -70 Z" fill="none" stroke="#ffffff" stroke-width="1" opacity="0.3"/>
    
    <!-- Lock-on Brackets -->
    <path d="M -140 -80 L -150 -90 L -140 -100" fill="none" stroke="#00ff9d" stroke-width="2" filter="url(#softGlow)"/>
    <path d="M 140 -80 L 150 -90 L 140 -100" fill="none" stroke="#00ff9d" stroke-width="2" filter="url(#softGlow)"/>
    <path d="M -140 80 L -150 90 L -140 100" fill="none" stroke="#00ff9d" stroke-width="2" filter="url(#softGlow)"/>
    <path d="M 140 80 L 150 90 L 140 100" fill="none" stroke="#00ff9d" stroke-width="2" filter="url(#softGlow)"/>

    <!-- Pixel Regeneration & Wireframe -->
    <g clip-path="url(#avatarClip)">
      <!-- Glitch Grid Phase -->
      <rect x="-150" y="-150" width="300" height="300" fill="url(#dataStream)" opacity="0">
        <animate attributeName="opacity" values="0;1;1;0;0" keyTimes="0;0.1;0.4;0.5;1" dur="5s" repeatCount="indefinite"/>
      </rect>
      
      <!-- Cybernetic Wireframe Phase -->
      <g opacity="0">
        <animate attributeName="opacity" values="0;0;1;1;0" keyTimes="0;0.5;0.6;0.9;1" dur="5s" repeatCount="indefinite"/>
        
        <path d="M -60 -80 L 60 -80 L 100 -20 L 80 60 L 0 110 L -80 60 L -100 -20 Z" fill="none" stroke="#00f2ff" stroke-width="2" filter="url(#bloom)"/>
        <path d="M -80 -30 L 80 -30 L 100 -10 L 80 10 L -80 10 L -100 -10 Z" fill="#02040a" stroke="#bd00ff" stroke-width="1.5"/>
        
        <!-- Holographic Visor -->
        <path d="M -70 -20 L 70 -20 L 80 -10 L 70 0 L -70 0 L -80 -10 Z" fill="#00f2ff" opacity="0.4">
          <animate attributeName="opacity" values="0.2;0.8;0.2" dur="1.5s" repeatCount="indefinite"/>
        </path>
        
        <!-- Scanning Eyes -->
        <rect x="-50" y="-12" width="20" height="4" fill="#ffffff" filter="url(#bloom)">
          <animate attributeName="width" values="0;20;20;0" keyTimes="0;0.2;0.8;1" dur="2s" repeatCount="indefinite"/>
        </rect>
        <rect x="30" y="-12" width="20" height="4" fill="#ffffff" filter="url(#bloom)">
          <animate attributeName="width" values="0;20;20;0" keyTimes="0;0.2;0.8;1" dur="2s" repeatCount="indefinite"/>
        </rect>
        
        <!-- Neural Link Equalizer -->
        <g transform="translate(0, 50)">
          <rect x="-30" y="0" width="5" height="15" fill="#00ff9d" filter="url(#softGlow)"><animate attributeName="height" values="5;25;10;20;5" dur="1s" repeatCount="indefinite"/><animate attributeName="y" values="5;-5;2;-2;5" dur="1s" repeatCount="indefinite"/></rect>
          <rect x="-15" y="0" width="5" height="10" fill="#00ff9d" filter="url(#softGlow)"><animate attributeName="height" values="15;5;20;10;15" dur="1s" repeatCount="indefinite"/><animate attributeName="y" values="-2;5;-5;2;-2" dur="1s" repeatCount="indefinite"/></rect>
          <rect x="0" y="0" width="5" height="20" fill="#00ff9d" filter="url(#softGlow)"><animate attributeName="height" values="10;20;5;15;10" dur="1s" repeatCount="indefinite"/><animate attributeName="y" values="2;-5;5;-2;2" dur="1s" repeatCount="indefinite"/></rect>
          <rect x="15" y="0" width="5" height="12" fill="#00ff9d" filter="url(#softGlow)"><animate attributeName="height" values="20;10;15;5;20" dur="1s" repeatCount="indefinite"/><animate attributeName="y" values="-5;2;0;5;-5" dur="1s" repeatCount="indefinite"/></rect>
        </g>
      </g>
    </g>

    <!-- Dual Scanning Lines -->
    <rect x="-150" y="-150" width="300" height="10" fill="#00f2ff" opacity="0.3" clip-path="url(#avatarClip)" filter="url(#bloom)">
      <animate attributeName="y" values="-150;150;-150" dur="3s" repeatCount="indefinite"/>
    </rect>
    <rect x="-150" y="-150" width="300" height="2" fill="#ffffff" opacity="0.8" clip-path="url(#avatarClip)">
      <animate attributeName="y" values="-150;150" dur="1.5s" repeatCount="indefinite"/>
    </rect>
    
    <!-- Floating Telemetry -->
    <g font-family="ui-monospace, monospace" font-size="9" fill="#00f2ff" opacity="0.8">
      <text x="160" y="-140" text-anchor="middle">FLUX: 8.4Ghz</text>
      <text x="-160" y="140" text-anchor="middle">SYNC: 100%</text>
      <text x="160" y="140" text-anchor="middle">TEMP: 24.5°C</text>
    </g>
  </g>

  <!-- Left Panel Bottom Info -->
  <g transform="translate(100, 580)" font-family="ui-monospace, monospace" font-size="11" fill="#8a9ba8">
    <text x="0" y="0">ID: SANYAM_SINGLA</text>
    <text x="0" y="16">LOC: MOHALI, IN</text>
    <rect x="0" y="24" width="120" height="2" fill="#00f2ff" opacity="0.5"/>
  </g>

  <!-- Right Panel: Main Content -->
  <g transform="translate(520, 110)">
    <!-- Intro -->
    <text x="0" y="0" fill="#bd00ff" font-family="ui-monospace, monospace" font-size="14" letter-spacing="3" filter="url(#softGlow)">
      &gt; INITIALIZING_QUANTUM_PROFILE...
    </text>
    
    <!-- Name with Extreme RGB Split Glitch -->
    <g transform="translate(0, 50)" filter="url(#chromaticGlitch)">
      <text x="4" y="0" fill="#ff0055" font-family="ui-monospace, monospace" font-size="56" font-weight="bold" opacity="0.7">Sanyam Singla</text>
      <text x="-4" y="0" fill="#00f2ff" font-family="ui-monospace, monospace" font-size="56" font-weight="bold" opacity="0.7">Sanyam Singla</text>
      <text x="0" y="0" fill="url(#cyberGrad)" font-family="ui-monospace, monospace" font-size="56" font-weight="bold" filter="url(#bloom)">Sanyam Singla</text>
    </g>

    <!-- Role Terminal (Holographic Projection) -->
    <rect x="0" y="80" width="600" height="36" rx="6" fill="#050810" stroke="url(#cyberGrad)" stroke-width="1" opacity="0.9"/>
    <circle cx="16" cy="98" r="4" fill="#ff5555"/>
    <circle cx="30" cy="98" r="4" fill="#ffbd2e"/>
    <circle cx="44" cy="98" r="4" fill="#00ff9d"/>
    <text x="70" y="102" fill="#8a9ba8" font-family="ui-monospace, monospace" font-size="12">cat roles.txt</text>
    
    <g transform="translate(70, 130)">
      <text x="0" y="0" fill="#00f2ff" font-family="ui-monospace, monospace" font-size="18" font-weight="bold" opacity="0" filter="url(#softGlow)">
        <animate attributeName="opacity" values="0;1;1;0;0" keyTimes="0;0.1;0.3;0.4;1" dur="6s" repeatCount="indefinite"/>
        &gt; AI Engineer &amp; Researcher
      </text>
      <text x="0" y="0" fill="#bd00ff" font-family="ui-monospace, monospace" font-size="18" font-weight="bold" opacity="0" filter="url(#softGlow)">
        <animate attributeName="opacity" values="0;0;1;1;0;0" keyTimes="0;0.25;0.35;0.6;0.7;1" dur="6s" repeatCount="indefinite"/>
        &gt; Full Stack Developer
      </text>
      <text x="0" y="0" fill="#00ff9d" font-family="ui-monospace, monospace" font-size="18" font-weight="bold" opacity="0" filter="url(#softGlow)">
        <animate attributeName="opacity" values="0;0;0;1;1;0" keyTimes="0;0.55;0.65;0.75;0.95;1" dur="6s" repeatCount="indefinite"/>
        &gt; Data Analyst &amp; Open Source
      </text>
      <rect x="0" y="-16" width="10" height="20" fill="#00f2ff" opacity="0">
        <animate attributeName="opacity" values="0;1;0" dur="0.8s" repeatCount="indefinite"/>
        <animate attributeName="x" values="0;260;190;320;0" keyTimes="0;0.1;0.35;0.75;1" dur="6s" repeatCount="indefinite"/>
      </rect>
    </g>

    <!-- Quick Stats Grid (Curved Holographic) -->
    <g transform="translate(0, 180)">
      <!-- Focus Card -->
      <path d="M 10 0 H 280 V 80 H 10 A 10 10 0 0 1 0 70 V 10 A 10 10 0 0 1 10 0 Z" fill="url(#hudGlass)" stroke="url(#cyberGrad)" stroke-width="1" opacity="0.9"/>
      <text x="15" y="25" fill="#4a5568" font-family="ui-monospace, monospace" font-size="10">FOCUS</text>
      <text x="15" y="50" fill="#ffffff" font-family="ui-monospace, monospace" font-size="14">AI-native Products</text>
      <text x="15" y="68" fill="#8a9ba8" font-family="ui-monospace, monospace" font-size="11">&amp; LLM Systems</text>
      <rect x="0" y="0" width="3" height="80" fill="#00f2ff" filter="url(#bloom)">
        <animate attributeName="opacity" values="0.5;1;0.5" dur="2s" repeatCount="indefinite"/>
      </rect>
      
      <!-- Education Card -->
      <path d="M 310 0 H 580 V 80 H 310 A 10 10 0 0 1 300 70 V 10 A 10 10 0 0 1 310 0 Z" fill="url(#hudGlass)" stroke="url(#cyberGrad)" stroke-width="1" opacity="0.9"/>
      <text x="315" y="25" fill="#4a5568" font-family="ui-monospace, monospace" font-size="10">EDUCATION</text>
      <text x="315" y="50" fill="#ffffff" font-family="ui-monospace, monospace" font-size="14">B.E. CSE</text>
      <text x="315" y="68" fill="#8a9ba8" font-family="ui-monospace, monospace" font-size="11">Chandigarh University</text>
      <rect x="300" y="0" width="3" height="80" fill="#bd00ff" filter="url(#bloom)">
        <animate attributeName="opacity" values="0.5;1;0.5" dur="2s" begin="0.5s" repeatCount="indefinite"/>
      </rect>
    </g>

    <!-- Tech Stack Neural Network (3D Perspective) -->
    <g transform="translate(0, 290)">
      <text x="0" y="0" fill="#bd00ff" font-family="ui-monospace, monospace" font-size="12" letter-spacing="2" filter="url(#softGlow)">
        // NEURAL_STACK_MAP
      </text>
      
      <g transform="translate(0, 25)">
        <!-- Connection Lines (Curved) -->
        <path d="M 50 0 Q 100 -30 150 -20 T 250 0 T 350 -20 T 450 0" fill="none" stroke="#00f2ff" stroke-width="1.5" opacity="0.5" stroke-dasharray="4 4">
          <animate attributeName="stroke-dashoffset" values="0;-16" dur="1s" repeatCount="indefinite"/>
        </path>
        <path d="M 50 30 Q 100 80 150 50 T 250 30 T 350 50 T 450 30" fill="none" stroke="#bd00ff" stroke-width="1.5" opacity="0.5" stroke-dasharray="4 4">
          <animate attributeName="stroke-dashoffset" values="0;16" dur="1.2s" repeatCount="indefinite"/>
        </path>

        <!-- High-Speed Data Packets -->
        <circle r="3.5" fill="#ffffff" filter="url(#bloom)">
          <animateMotion dur="2s" repeatCount="indefinite" path="M 50 0 Q 100 -30 150 -20 T 250 0 T 350 -20 T 450 0"/>
        </circle>
        <circle r="3.5" fill="#ffffff" filter="url(#bloom)">
          <animateMotion dur="2.5s" begin="0.5s" repeatCount="indefinite" path="M 50 30 Q 100 80 150 50 T 250 30 T 350 50 T 450 30"/>
        </circle>

        <!-- Nodes -->
        <g font-family="ui-monospace, monospace" font-size="10" text-anchor="middle">
          <g transform="translate(50, 0)"><rect x="-30" y="-12" width="60" height="24" rx="4" fill="#050810" stroke="#00f2ff"/><text y="4" fill="#00f2ff">Python</text><animate attributeName="opacity" values="0.7;1;0.7" dur="2s" repeatCount="indefinite"/></g>
          <g transform="translate(150, -20)"><rect x="-35" y="-12" width="70" height="24" rx="4" fill="#050810" stroke="#00f2ff"/><text y="4" fill="#00f2ff">React.js</text><animate attributeName="opacity" values="0.7;1;0.7" dur="2s" begin="0.3s" repeatCount="indefinite"/></g>
          <g transform="translate(250, 0)"><rect x="-35" y="-12" width="70" height="24" rx="4" fill="#050810" stroke="#bd00ff"/><text y="4" fill="#bd00ff">Next.js</text><animate attributeName="opacity" values="0.7;1;0.7" dur="2s" begin="0.6s" repeatCount="indefinite"/></g>
          <g transform="translate(350, -20)"><rect x="-35" y="-12" width="70" height="24" rx="4" fill="#050810" stroke="#bd00ff"/><text y="4" fill="#bd00ff">Node.js</text><animate attributeName="opacity" values="0.7;1;0.7" dur="2s" begin="0.9s" repeatCount="indefinite"/></g>
          <g transform="translate(450, 0)"><rect x="-40" y="-12" width="80" height="24" rx="4" fill="#050810" stroke="#00ff9d"/><text y="4" fill="#00ff9d">TypeScript</text><animate attributeName="opacity" values="0.7;1;0.7" dur="2s" begin="1.2s" repeatCount="indefinite"/></g>
          <g transform="translate(50, 30)"><rect x="-35" y="-12" width="70" height="24" rx="4" fill="#050810" stroke="#00f2ff"/><text y="4" fill="#00f2ff">MongoDB</text><animate attributeName="opacity" values="0.7;1;0.7" dur="2.5s" begin="0.2s" repeatCount="indefinite"/></g>
          <g transform="translate(150, 50)"><rect x="-35" y="-12" width="70" height="24" rx="4" fill="#050810" stroke="#bd00ff"/><text y="4" fill="#bd00ff">Docker</text><animate attributeName="opacity" values="0.7;1;0.7" dur="2.5s" begin="0.5s" repeatCount="indefinite"/></g>
          <g transform="translate(250, 30)"><rect x="-30" y="-12" width="60" height="24" rx="4" fill="#050810" stroke="#00ff9d"/><text y="4" fill="#00ff9d">AWS</text><animate attributeName="opacity" values="0.7;1;0.7" dur="2.5s" begin="0.8s" repeatCount="indefinite"/></g>
          <g transform="translate(350, 50)"><rect x="-30" y="-12" width="60" height="24" rx="4" fill="#050810" stroke="#00f2ff"/><text y="4" fill="#00f2ff">Flutter</text><animate attributeName="opacity" values="0.7;1;0.7" dur="2.5s" begin="1.1s" repeatCount="indefinite"/></g>
          <g transform="translate(450, 30)"><rect x="-40" y="-12" width="80" height="24" rx="4" fill="#050810" stroke="#bd00ff"/><text y="4" fill="#bd00ff">LLM APIs</text><animate attributeName="opacity" values="0.7;1;0.7" dur="2.5s" begin="1.4s" repeatCount="indefinite"/></g>
        </g>
      </g>
    </g>
  </g>

  <!-- System Diagnostics & Audio Waveform -->
  <g transform="translate(880, 500)" font-family="ui-monospace, monospace" opacity="0.8">
    <text x="0" y="0" fill="#4a5568" font-size="9" letter-spacing="1">SYS_DIAGNOSTICS</text>
    <g transform="translate(0, 12)">
      <text x="0" y="8" fill="#8a9ba8" font-size="8">CPU</text>
      <rect x="25" y="3" width="100" height="4" fill="#0a0f1a" rx="2"/>
      <rect x="25" y="3" width="0" height="4" fill="#00f2ff" rx="2">
        <animate attributeName="width" values="40;85;55;70;45;80;40" dur="4s" repeatCount="indefinite"/>
      </rect>
      <text x="0" y="20" fill="#8a9ba8" font-size="8">GPU</text>
      <rect x="25" y="15" width="100" height="4" fill="#0a0f1a" rx="2"/>
      <rect x="25" y="15" width="0" height="4" fill="#bd00ff" rx="2">
        <animate attributeName="width" values="60;90;50;75;65;85;60" dur="3.5s" repeatCount="indefinite"/>
      </rect>
      <text x="0" y="32" fill="#8a9ba8" font-size="8">NET</text>
      <rect x="25" y="27" width="100" height="4" fill="#0a0f1a" rx="2"/>
      <rect x="25" y="27" width="0" height="4" fill="#00ff9d" rx="2">
        <animate attributeName="width" values="30;70;45;60;35;65;30" dur="3s" repeatCount="indefinite"/>
      </rect>
    </g>
    <!-- Audio Waveform -->
    <g transform="translate(0, 55)">
      <rect x="0" y="-10" width="2" height="20" fill="#00f2ff" opacity="0.8"><animate attributeName="height" values="10;20;5;15;10" dur="0.8s" repeatCount="indefinite"/><animate attributeName="y" values="-5;-10;-2.5;-7.5;-5" dur="0.8s" repeatCount="indefinite"/></rect>
      <rect x="5" y="-15" width="2" height="30" fill="#00f2ff" opacity="0.8"><animate attributeName="height" values="30;10;20;15;30" dur="0.8s" repeatCount="indefinite"/><animate attributeName="y" values="-15;-5;-10;-7.5;-15" dur="0.8s" repeatCount="indefinite"/></rect>
      <rect x="10" y="-5" width="2" height="10" fill="#00f2ff" opacity="0.8"><animate attributeName="height" values="10;25;5;20;10" dur="0.8s" repeatCount="indefinite"/><animate attributeName="y" values="-5;-12.5;-2.5;-10;-5" dur="0.8s" repeatCount="indefinite"/></rect>
      <rect x="15" y="-12" width="2" height="24" fill="#00f2ff" opacity="0.8"><animate attributeName="height" values="24;12;18;6;24" dur="0.8s" repeatCount="indefinite"/><animate attributeName="y" values="-12;-6;-9;-3;-12" dur="0.8s" repeatCount="indefinite"/></rect>
      <rect x="20" y="-8" width="2" height="16" fill="#00f2ff" opacity="0.8"><animate attributeName="height" values="16;24;8;20;16" dur="0.8s" repeatCount="indefinite"/><animate attributeName="y" values="-8;-12;-4;-10;-8" dur="0.8s" repeatCount="indefinite"/></rect>
      <rect x="25" y="-15" width="2" height="30" fill="#bd00ff" opacity="0.8"><animate attributeName="height" values="30;10;20;15;30" dur="0.8s" repeatCount="indefinite"/><animate attributeName="y" values="-15;-5;-10;-7.5;-15" dur="0.8s" repeatCount="indefinite"/></rect>
      <rect x="30" y="-5" width="2" height="10" fill="#bd00ff" opacity="0.8"><animate attributeName="height" values="10;25;5;20;10" dur="0.8s" repeatCount="indefinite"/><animate attributeName="y" values="-5;-12.5;-2.5;-10;-5" dur="0.8s" repeatCount="indefinite"/></rect>
      <rect x="35" y="-12" width="2" height="24" fill="#bd00ff" opacity="0.8"><animate attributeName="height" values="24;12;18;6;24" dur="0.8s" repeatCount="indefinite"/><animate attributeName="y" values="-12;-6;-9;-3;-12" dur="0.8s" repeatCount="indefinite"/></rect>
      <rect x="40" y="-8" width="2" height="16" fill="#bd00ff" opacity="0.8"><animate attributeName="height" values="16;24;8;20;16" dur="0.8s" repeatCount="indefinite"/><animate attributeName="y" values="-8;-12;-4;-10;-8" dur="0.8s" repeatCount="indefinite"/></rect>
      <rect x="45" y="-15" width="2" height="30" fill="#00ff9d" opacity="0.8"><animate attributeName="height" values="30;10;20;15;30" dur="0.8s" repeatCount="indefinite"/><animate attributeName="y" values="-15;-5;-10;-7.5;-15" dur="0.8s" repeatCount="indefinite"/></rect>
      <rect x="50" y="-5" width="2" height="10" fill="#00ff9d" opacity="0.8"><animate attributeName="height" values="10;25;5;20;10" dur="0.8s" repeatCount="indefinite"/><animate attributeName="y" values="-5;-12.5;-2.5;-10;-5" dur="0.8s" repeatCount="indefinite"/></rect>
    </g>
  </g>

  <!-- Super Interactive Holographic Buttons -->
  <g transform="translate(600, 570)" font-family="ui-monospace, monospace" font-size="12" font-weight="bold" text-anchor="middle">
    <!-- GitHub Button -->
    <a href="https://github.com/SAM10101010" target="_blank">
      <g class="btn-group" transform="translate(-160, 0)" style="color:#00f2ff">
        <rect x="-70" y="-22" width="140" height="44" rx="22" fill="url(#hudGlass)" stroke="#00f2ff" stroke-width="1.5" filter="url(#bloom)"/>
        <rect class="btn-shine" x="-70" y="-22" width="140" height="44" rx="22" fill="url(#shineSweep)" opacity="0" style="pointer-events: none;"/>
        <path class="btn-icon" d="M-12 -8c-4.4 0-8 3.6-8 8 0 3.5 2.3 6.5 5.5 7.6.4.1.5-.2.5-.4v-1.4c-2.2.5-2.7-1.1-2.7-1.1-.4-.9-.9-1.2-.9-1.2-.7-.5.1-.5.1-.5.8.1 1.2.8 1.2.8.7 1.2 1.8.8 2.2.7.1-.5.3-.8.5-1-1.8-.2-3.6-.9-3.6-3.9 0-.9.3-1.6.8-2.1-.1-.2-.4-1 .1-2.1 0 0 .7-.2 2.2.8.6-.2 1.3-.3 2-.3.7 0 1.4.1 2 .3 1.5-1 2.2-.8 2.2-.8.4 1.1.1 1.9.1 2.1.5.6.8 1.3.8 2.1 0 3.1-1.8 3.7-3.6 3.9.3.3.5.8.5 1.4v2.1c0 .2.1.5.5.4 3.2-1.1 5.5-4.1 5.5-7.6 0-4.4-3.6-8-8-8z" fill="#00f2ff" transform="scale(0.8) translate(-40, -2)"/>
        <text x="10" y="4" fill="#00f2ff">GITHUB</text>
      </g>
    </a>
    <!-- LinkedIn Button -->
    <a href="https://linkedin.com/in/sanyam-singla-41673b292" target="_blank">
      <g class="btn-group" transform="translate(0, 0)" style="color:#bd00ff">
        <rect x="-70" y="-22" width="140" height="44" rx="22" fill="url(#hudGlass)" stroke="#bd00ff" stroke-width="1.5" filter="url(#bloom)"/>
        <rect class="btn-shine" x="-70" y="-22" width="140" height="44" rx="22" fill="url(#shineSweep)" opacity="0" style="pointer-events: none;"/>
        <path class="btn-icon" d="M-20 -15h4v4h-4zm0 6h4v14h-4zm6 -6h4v2c1-1.5 2.5-2.5 5-2.5 5 0 6 3 6 7.5v8h-4v-7c0-2-.5-3.5-2.5-3.5s-3 1.5-3 3.5v7h-4v-20z" fill="#bd00ff" transform="scale(0.8) translate(-30, 0)"/>
        <text x="10" y="4" fill="#bd00ff">LINKEDIN</text>
      </g>
    </a>
    <!-- Email Button -->
    <a href="mailto:sanyamsingla36@gmail.com" target="_blank">
      <g class="btn-group" transform="translate(160, 0)" style="color:#00ff9d">
        <rect x="-70" y="-22" width="140" height="44" rx="22" fill="url(#hudGlass)" stroke="#00ff9d" stroke-width="1.5" filter="url(#bloom)"/>
        <rect class="btn-shine" x="-70" y="-22" width="140" height="44" rx="22" fill="url(#shineSweep)" opacity="0" style="pointer-events: none;"/>
        <path class="btn-icon" d="M-20 -10h18v12h-18zm0 0l9 6 9-6" fill="none" stroke="#00ff9d" stroke-width="1.5" stroke-linecap="round" stroke-linejoin="round" transform="scale(0.8) translate(-20, -2)"/>
        <text x="15" y="4" fill="#00ff9d">EMAIL</text>
      </g>
    </a>
  </g>

  <!-- Advanced Background Floating Data -->
  <g opacity="0.2" font-family="ui-monospace, monospace" font-size="10" fill="#00f2ff">
    <text x="100" y="100">10110010</text>
    <text x="1050" y="180">0xFF1A</text>
    <text x="150" y="620">&lt;data&gt;</text>
    <text x="1080" y="580">[OK]</text>
  </g>
</svg>
