<svg xmlns="http://www.w3.org/2000/svg" viewBox="0 0 1200 680" width="100%" preserveAspectRatio="xMidYMid meet" role="img" aria-label="Sanyam Singla - Quantum Holographic Profile">
  <defs>
    <!-- Core Prismatic Background -->
    <linearGradient id="bgGrad" x1="0%" y1="0%" x2="100%" y2="100%">
      <stop offset="0%" stop-color="#02030a"/>
      <stop offset="50%" stop-color="#050818"/>
      <stop offset="100%" stop-color="#01020a"/>
    </linearGradient>

    <!-- Volumetric Lighting & Orbs -->
    <radialGradient id="godRay1" cx="50%" cy="0%" r="70%">
      <stop offset="0%" stop-color="#00f2ff" stop-opacity="0.2"/>
      <stop offset="100%" stop-color="#00f2ff" stop-opacity="0"/>
    </radialGradient>
    <radialGradient id="orbCyan" cx="50%" cy="50%" r="50%">
      <stop offset="0%" stop-color="#00f2ff" stop-opacity="0.5"/>
      <stop offset="100%" stop-color="#00f2ff" stop-opacity="0"/>
    </radialGradient>
    <radialGradient id="orbMagenta" cx="50%" cy="50%" r="50%">
      <stop offset="0%" stop-color="#bd00ff" stop-opacity="0.4"/>
      <stop offset="100%" stop-color="#bd00ff" stop-opacity="0"/>
    </radialGradient>
    <radialGradient id="coreGrad" cx="50%" cy="50%" r="50%">
      <stop offset="0%" stop-color="#ffffff" stop-opacity="0.9"/>
      <stop offset="20%" stop-color="#00f2ff" stop-opacity="0.8"/>
      <stop offset="60%" stop-color="#bd00ff" stop-opacity="0.4"/>
      <stop offset="100%" stop-color="#bd00ff" stop-opacity="0"/>
    </radialGradient>

    <!-- Glassmorphism & Edges -->
    <linearGradient id="hudGlass" x1="0%" y1="0%" x2="100%" y2="100%">
      <stop offset="0%" stop-color="#080d18" stop-opacity="0.7"/>
      <stop offset="50%" stop-color="#0d1320" stop-opacity="0.4"/>
      <stop offset="100%" stop-color="#05070c" stop-opacity="0.9"/>
    </linearGradient>

    <!-- Cyber Gradients -->
    <linearGradient id="cyberGrad" x1="0%" y1="0%" x2="100%" y2="0%">
      <stop offset="0%" stop-color="#00f2ff"/>
      <stop offset="40%" stop-color="#bd00ff"/>
      <stop offset="70%" stop-color="#00ff9d"/>
      <stop offset="100%" stop-color="#00f2ff"/>
      <animate attributeName="x1" values="-100%;200%;-100%" dur="6s" repeatCount="indefinite"/>
    </linearGradient>
    
    <linearGradient id="shineSweep" x1="0%" y1="0%" x2="100%" y2="0%">
      <stop offset="0%" stop-color="#ffffff" stop-opacity="0"/>
      <stop offset="50%" stop-color="#ffffff" stop-opacity="0.6"/>
      <stop offset="100%" stop-color="#ffffff" stop-opacity="0"/>
    </linearGradient>

    <!-- Hologram Node Reflection -->
    <linearGradient id="holoReflect" x1="0%" y1="0%" x2="0%" y2="100%">
      <stop offset="0%" stop-color="#00f2ff" stop-opacity="0.4"/>
      <stop offset="100%" stop-color="#00f2ff" stop-opacity="0"/>
    </linearGradient>
    <linearGradient id="holoReflect2" x1="0%" y1="0%" x2="0%" y2="100%">
      <stop offset="0%" stop-color="#bd00ff" stop-opacity="0.4"/>
      <stop offset="100%" stop-color="#bd00ff" stop-opacity="0"/>
    </linearGradient>
    <linearGradient id="holoReflect3" x1="0%" y1="0%" x2="0%" y2="100%">
      <stop offset="0%" stop-color="#00ff9d" stop-opacity="0.4"/>
      <stop offset="100%" stop-color="#00ff9d" stop-opacity="0"/>
    </linearGradient>

    <!-- Advanced Filters -->
    <filter id="bloom" x="-50%" y="-50%" width="200%" height="200%">
      <feGaussianBlur stdDeviation="6" result="blur1"/>
      <feGaussianBlur stdDeviation="12" result="blur2"/>
      <feGaussianBlur stdDeviation="24" result="blur3"/>
      <feMerge>
        <feMergeNode in="blur3"/>
        <feMergeNode in="blur2"/>
        <feMergeNode in="blur1"/>
        <feMergeNode in="SourceGraphic"/>
      </feMerge>
    </filter>
    <filter id="softGlow" x="-50%" y="-50%" width="200%" height="200%">
      <feGaussianBlur stdDeviation="3" result="blur"/>
      <feMerge><feMergeNode in="blur"/><feMergeNode in="SourceGraphic"/></feMerge>
    </filter>
    <filter id="glitch" x="-10%" y="-10%" width="120%" height="120%">
      <feTurbulence type="fractalNoise" baseFrequency="0.8" numOctaves="2" seed="3" result="noise">
        <animate attributeName="baseFrequency" values="0.8; 1.2; 0.8" dur="3s" repeatCount="indefinite"/>
      </feTurbulence>
      <feColorMatrix type="matrix" values="1 0 0 0 0  0 0 0 0 0  0 0 0 0 0  0 0 0 0 1" in="noise" result="redNoise"/>
      <feDisplacementMap in="SourceGraphic" in2="redNoise" scale="4" xChannelSelector="R" yChannelSelector="G"/>
    </filter>
    <filter id="noise" x="0" y="0" width="100%" height="100%">
      <feTurbulence type="fractalNoise" baseFrequency="0.9" numOctaves="3" seed="5"/>
      <feColorMatrix type="saturate" values="0"/>
      <feComponentTransfer><feFuncA type="table" tableValues="0 0.04"/></feComponentTransfer>
    </filter>

    <!-- Clip Paths -->
    <clipPath id="avatarClip">
      <path d="M 0 -120 L 90 -80 L 120 0 L 90 80 L 0 120 L -90 80 L -120 0 L -90 -80 Z"/>
    </clipPath>
    <clipPath id="hudClip">
      <path d="M 40 40 H 1160 V 640 H 40 Z"/>
    </clipPath>

    <!-- Patterns -->
    <pattern id="hexGrid" width="40" height="46" patternUnits="userSpaceOnUse">
      <path d="M 20 0 L 40 11.5 L 40 34.5 L 20 46 L 0 34.5 L 0 11.5 Z" fill="none" stroke="#ffffff" stroke-opacity="0.03" stroke-width="0.5"/>
    </pattern>
    <pattern id="digitalPixels" width="10" height="10" patternUnits="userSpaceOnUse">
      <rect x="0" y="0" width="5" height="5" fill="#00f2ff" opacity="0.1"/>
      <rect x="5" y="5" width="5" height="5" fill="#bd00ff" opacity="0.1"/>
      <animateTransform attributeName="patternTransform" type="translate" values="0,0; 10,10" dur="1s" repeatCount="indefinite"/>
    </pattern>

    <!-- 3D Perspective Grid Pattern -->
    <pattern id="perspectiveGrid" width="100" height="100" patternUnits="userSpaceOnUse">
      <path d="M 0 100 L 50 0 L 100 100" fill="none" stroke="#00f2ff" stroke-width="1" opacity="0.15"/>
      <path d="M 0 100 L 100 100" fill="none" stroke="#00f2ff" stroke-width="1" opacity="0.15"/>
      <animateTransform attributeName="patternTransform" type="translate" values="0,0; 0,100" dur="2s" repeatCount="indefinite"/>
    </pattern>
    <linearGradient id="gridFade" x1="0%" y1="0%" x2="0%" y2="100%">
      <stop offset="0%" stop-color="#02030a" stop-opacity="1"/>
      <stop offset="50%" stop-color="#02030a" stop-opacity="0.5"/>
      <stop offset="100%" stop-color="#02030a" stop-opacity="0"/>
    </linearGradient>

    <style>
      .btn-group { cursor: pointer; transition: filter 0.3s ease; }
      .btn-group:hover { filter: brightness(1.8) drop-shadow(0 0 15px currentColor); }
      .btn-group:hover .btn-shine { opacity: 1; animation: shine 1s linear infinite; }
      .btn-group:hover .btn-icon { transform: scale(1.1) rotate(5deg); }
      .btn-icon { transition: transform 0.3s ease; transform-origin: center; transform-box: fill-box; }
      @keyframes shine { 0% { transform: translateX(-100%); } 100% { transform: translateX(100%); } }
      @media (prefers-reduced-motion: reduce) {
        animate, animateTransform, animateMotion { display: none; }
        * { animation: none !important; }
      }
    </style>
  </defs>

  <!-- Base Background -->
  <rect width="1200" height="680" fill="url(#bgGrad)"/>
  <rect width="1200" height="680" fill="url(#hexGrid)"/>
  
  <!-- Deep Perspective Floor -->
  <g transform="translate(0, 400)">
    <rect x="0" y="0" width="1200" height="280" fill="url(#perspectiveGrid)" mask="url(#gridFade)"/>
    <rect x="0" y="0" width="1200" height="280" fill="url(#gridFade)"/>
  </g>

  <!-- Volumetric God Rays -->
  <polygon points="400,0 800,0 1000,680 200,680" fill="url(#godRay1)" opacity="0.3">
    <animateTransform attributeName="transform" type="skewX" values="-5;5;-5" dur="15s" repeatCount="indefinite"/>
  </polygon>

  <!-- Ambient Orbs -->
  <circle cx="200" cy="150" r="350" fill="url(#orbCyan)" filter="url(#bloom)">
    <animate attributeName="cx" values="200;400;200" dur="25s" repeatCount="indefinite"/>
    <animate attributeName="cy" values="150;350;150" dur="20s" repeatCount="indefinite"/>
  </circle>
  <circle cx="1000" cy="550" r="400" fill="url(#orbMagenta)" filter="url(#bloom)">
    <animate attributeName="cx" values="1000;800;1000" dur="22s" repeatCount="indefinite"/>
    <animate attributeName="cy" values="550;350;550" dur="18s" repeatCount="indefinite"/>
  </circle>

  <!-- Global Noise Overlay -->
  <rect width="1200" height="680" fill="#ffffff" opacity="0.15" filter="url(#noise)" style="mix-blend-mode: overlay;"/>

  <!-- Unreal HUD Frame -->
  <g opacity="0">
    <animate attributeName="opacity" values="0;1" dur="1s" fill="freeze"/>
    <path d="M 50 50 H 1150 V 630 H 50 Z" fill="url(#hudGlass)"/>
    <path d="M 50 50 H 1150 V 630 H 50 Z" fill="none" stroke="url(#cyberGrad)" stroke-width="2" filter="url(#softGlow)"/>
    <path d="M 55 55 H 1145 V 625 H 55 Z" fill="none" stroke="#ffffff" stroke-width="0.5" opacity="0.15"/>
    
    <!-- Holographic Corner Fittings -->
    <path d="M 40 90 L 50 50 L 90 40 L 80 80 Z" fill="url(#hudGlass)" stroke="url(#cyberGrad)" stroke-width="1.5"/>
    <path d="M 1160 90 L 1150 50 L 1110 40 L 1120 80 Z" fill="url(#hudGlass)" stroke="url(#cyberGrad)" stroke-width="1.5"/>
    <path d="M 40 590 L 50 630 L 90 640 L 80 600 Z" fill="url(#hudGlass)" stroke="url(#cyberGrad)" stroke-width="1.5"/>
    <path d="M 1160 590 L 1150 630 L 1110 640 L 1120 600 Z" fill="url(#hudGlass)" stroke="url(#cyberGrad)" stroke-width="1.5"/>
  </g>

  <!-- Top System Bar -->
  <g transform="translate(0, 0)">
    <rect x="50" y="50" width="1100" height="30" fill="#02040a" opacity="0.6"/>
    <rect x="50" y="50" width="1100" height="1" fill="url(#cyberGrad)"/>
    <text x="70" y="70" fill="#00f2ff" font-family="ui-monospace, monospace" font-size="12" letter-spacing="2">SYS://QUANTUM_PROFILE_INTERFACE_V4.0</text>
    <circle cx="1130" cy="65" r="4" fill="#00ff9d">
      <animate attributeName="opacity" values="1;0.3;1" dur="1.5s" repeatCount="indefinite"/>
      <animate attributeName="r" values="4;6;4" dur="1.5s" repeatCount="indefinite"/>
    </circle>
    <text x="1100" y="70" text-anchor="end" fill="#4a5568" font-family="ui-monospace, monospace" font-size="10">UPTIME: 99.99%</text>
    <text x="500" y="70" fill="#4a5568" font-family="ui-monospace, monospace" font-size="10">LATENCY: 12ms</text>
  </g>

  <!-- Left Panel: Hyper-Advanced 3D Avatar Core -->
  <g transform="translate(280, 350)">
    
    <!-- Holographic Containment Field -->
    <circle cx="0" cy="0" r="190" fill="none" stroke="#00f2ff" stroke-width="1" opacity="0.2">
      <animate attributeName="r" values="190;210;190" dur="4s" repeatCount="indefinite"/>
      <animate attributeName="opacity" values="0.2;0.5;0.2" dur="4s" repeatCount="indefinite"/>
    </circle>
    
    <!-- Faked 3D Tilting Orbits -->
    <g transform="scale(1, 0.3)">
      <circle cx="0" cy="0" r="220" fill="none" stroke="#00ff9d" stroke-width="2" stroke-dasharray="2 10" opacity="0.6">
        <animateTransform attributeName="transform" type="rotate" values="0;360" dur="25s" repeatCount="indefinite"/>
      </circle>
    </g>
    <g transform="scale(0.3, 1)">
      <circle cx="0" cy="0" r="200" fill="none" stroke="#bd00ff" stroke-width="2" stroke-dasharray="4 8" opacity="0.6">
        <animateTransform attributeName="transform" type="rotate" values="360;0" dur="20s" repeatCount="indefinite"/>
      </circle>
    </g>
    
    <!-- Outer Rotating Rings -->
    <circle cx="0" cy="0" r="175" fill="none" stroke="#00f2ff" stroke-width="1" stroke-dasharray="20 10 5 10" opacity="0.8" filter="url(#softGlow)">
      <animateTransform attributeName="transform" type="rotate" values="360;0" dur="15s" repeatCount="indefinite"/>
    </circle>
    
    <!-- Orbital Data Satellites -->
    <g>
      <animateTransform attributeName="transform" type="rotate" values="0;360" dur="8s" repeatCount="indefinite"/>
      <g transform="translate(175, 0)">
        <polygon points="0,-6 5,0 0,6 -5,0" fill="#00f2ff" filter="url(#bloom)"/>
        <line x1="0" y1="0" x2="25" y2="0" stroke="#00f2ff" stroke-width="1" opacity="0.5"/>
      </g>
    </g>

    <!-- Pulsing Core Energy -->
    <circle cx="0" cy="0" r="40" fill="url(#coreGrad)" opacity="0.8">
      <animate attributeName="r" values="30;50;30" dur="2s" repeatCount="indefinite"/>
      <animate attributeName="opacity" values="0.4;0.8;0.4" dur="2s" repeatCount="indefinite"/>
    </circle>

    <!-- Hexagonal Frame -->
    <path d="M 0 -150 L 130 -75 L 130 75 L 0 150 L -130 75 L -130 -75 Z" fill="#030508" opacity="0.9" stroke="url(#cyberGrad)" stroke-width="3" filter="url(#bloom)"/>
    
    <!-- Lock-on Brackets -->
    <path d="M -140 -80 L -150 -90 L -140 -100" fill="none" stroke="#00ff9d" stroke-width="2" filter="url(#softGlow)"/>
    <path d="M 140 -80 L 150 -90 L 140 -100" fill="none" stroke="#00ff9d" stroke-width="2" filter="url(#softGlow)"/>
    <path d="M -140 80 L -150 90 L -140 100" fill="none" stroke="#00ff9d" stroke-width="2" filter="url(#softGlow)"/>
    <path d="M 140 80 L 150 90 L 140 100" fill="none" stroke="#00ff9d" stroke-width="2" filter="url(#softGlow)"/>

    <!-- Complex Multi-Phase Face Animation -->
    <g clip-path="url(#avatarClip)">
      
      <!-- Phase 1: Pixel Re-materialization -->
      <rect x="-150" y="-150" width="300" height="300" fill="url(#digitalPixels)" opacity="0">
        <animate attributeName="opacity" values="0;1;1;0;0" keyTimes="0;0.1;0.15;0.2;1" dur="12s" repeatCount="indefinite"/>
        <animateTransform attributeName="transform" type="scale" values="0.8;1;1" keyTimes="0;0.15;0.2" dur="12s" repeatCount="indefinite"/>
      </rect>
      
      <!-- Phase 2: Awakening Wireframe -->
      <g opacity="0">
        <animate attributeName="opacity" values="0;0;1;1;0;0" keyTimes="0;0.15;0.2;0.35;0.4;1" dur="12s" repeatCount="indefinite"/>
        <path d="M -60 -80 L 60 -80 L 100 -20 L 80 60 L 0 110 L -80 60 L -100 -20 Z" fill="none" stroke="#00f2ff" stroke-width="2" filter="url(#bloom)"/>
        <path d="M -80 -30 L 80 -30 L 100 -10 L 80 10 L -80 10 L -100 -10 Z" fill="#02040a" stroke="#bd00ff" stroke-width="1.5"/>
        <path d="M -70 -20 L 70 -20 L 80 -10 L 70 0 L -70 0 L -80 -10 Z" fill="#00f2ff" opacity="0.4">
          <animate attributeName="opacity" values="0.2;0.8;0.2" dur="1.5s" repeatCount="indefinite"/>
        </path>
        <rect x="-50" y="-12" width="0" height="4" fill="#ffffff" filter="url(#bloom)">
          <animate attributeName="width" values="0;20;20;0" keyTimes="0;0.1;0.8;1" dur="2s" repeatCount="indefinite"/>
        </rect>
        <rect x="30" y="-12" width="0" height="4" fill="#ffffff" filter="url(#bloom)">
          <animate attributeName="width" values="0;20;20;0" keyTimes="0;0.1;0.8;1" dur="2s" repeatCount="indefinite"/>
        </rect>
      </g>

      <!-- Phase 3: Active Expressive State -->
      <g opacity="0">
        <animate attributeName="opacity" values="0;0;1;1;0;0" keyTimes="0;0.35;0.4;0.75;0.8;1" dur="12s" repeatCount="indefinite"/>
        <path d="M -80 -30 L 80 -30 L 100 -10 L 80 10 L -80 10 L -100 -10 Z" fill="#02040a" stroke="#00f2ff" stroke-width="2"/>
        <path d="M -70 -20 L 70 -20 L 80 -10 L 70 0 L -70 0 L -80 -10 Z" fill="#00f2ff" opacity="0.6"/>
        <path d="M -60 -40 L -30 -35" fill="none" stroke="#00ff9d" stroke-width="3" filter="url(#bloom)"/>
        <path d="M 60 -40 L 30 -35" fill="none" stroke="#00ff9d" stroke-width="3" filter="url(#bloom)"/>
        <rect x="-50" y="-12" width="20" height="4" fill="#ffffff" filter="url(#bloom)">
          <animate attributeName="height" values="4;4;0;4;4" keyTimes="0;0.4;0.45;0.5;1" dur="4s" repeatCount="indefinite"/>
          <animate attributeName="y" values="-12;-12;-10;-12;-12" keyTimes="0;0.4;0.45;0.5;1" dur="4s" repeatCount="indefinite"/>
        </rect>
        <rect x="30" y="-12" width="20" height="4" fill="#ffffff" filter="url(#bloom)">
          <animate attributeName="height" values="4;4;0;4;4" keyTimes="0;0.4;0.45;0.5;1" dur="4s" repeatCount="indefinite"/>
          <animate attributeName="y" values="-12;-12;-10;-12;-12" keyTimes="0;0.4;0.45;0.5;1" dur="4s" repeatCount="indefinite"/>
        </rect>
        <path d="M -30 50 Q 0 70 30 50" fill="none" stroke="#bd00ff" stroke-width="2" filter="url(#bloom)">
          <animate attributeName="d" values="M -30 50 Q 0 70 30 50; M -30 50 Q 0 40 30 50; M -30 50 Q 0 70 30 50" dur="2s" repeatCount="indefinite"/>
        </path>
        <circle cx="0" cy="20" r="15" fill="#bd00ff" opacity="0.5" filter="url(#bloom)">
          <animate attributeName="r" values="10;20;10" dur="1s" repeatCount="indefinite"/>
          <animate attributeName="opacity" values="0.2;0.6;0.2" dur="1s" repeatCount="indefinite"/>
        </circle>
      </g>

      <!-- Phase 4: Disintegration / Fragmentation -->
      <g opacity="0">
        <animate attributeName="opacity" values="0;0;1;1;0" keyTimes="0;0.75;0.8;0.9;1" dur="12s" repeatCount="indefinite"/>
        <polygon points="-60,-80 60,-80 0,-40" fill="none" stroke="#00f2ff" stroke-width="1" filter="url(#bloom)">
          <animateTransform attributeName="transform" type="translate" values="0,0; 0,-100" keyTimes="0;1" dur="2s" begin="8.5s" repeatCount="indefinite"/>
        </polygon>
        <polygon points="100,-20 80,60 40,20" fill="none" stroke="#bd00ff" stroke-width="1" filter="url(#bloom)">
          <animateTransform attributeName="transform" type="translate" values="0,0; 100,50" keyTimes="0;1" dur="2s" begin="8.5s" repeatCount="indefinite"/>
        </polygon>
        <polygon points="-100,-20 -80,60 -40,20" fill="none" stroke="#00ff9d" stroke-width="1" filter="url(#bloom)">
          <animateTransform attributeName="transform" type="translate" values="0,0; -100,50" keyTimes="0;1" dur="2s" begin="8.5s" repeatCount="indefinite"/>
        </polygon>
        <polygon points="-80,60 80,60 0,110" fill="none" stroke="#00f2ff" stroke-width="1" filter="url(#bloom)">
          <animateTransform attributeName="transform" type="translate" values="0,0; 0,100" keyTimes="0;1" dur="2s" begin="8.5s" repeatCount="indefinite"/>
        </polygon>
      </g>

      <!-- Continuous Scanning Lines -->
      <rect x="-150" y="-150" width="300" height="10" fill="#00f2ff" opacity="0.2" clip-path="url(#avatarClip)" filter="url(#bloom)">
        <animate attributeName="y" values="-150;150;-150" dur="3s" repeatCount="indefinite"/>
      </rect>
      <rect x="-150" y="-150" width="300" height="2" fill="#ffffff" opacity="0.8" clip-path="url(#avatarClip)">
        <animate attributeName="y" values="-150;150" dur="1.5s" repeatCount="indefinite"/>
      </rect>
    </g>

    <!-- Floating Telemetry -->
    <g font-family="ui-monospace, monospace" font-size="9" fill="#00f2ff" opacity="0.8">
      <text x="160" y="-140" text-anchor="middle">FLUX: 8.4Ghz</text>
      <text x="-160" y="140" text-anchor="middle">SYNC: 100%</text>
    </g>
  </g>

  <!-- Right Panel: Main Content -->
  <g transform="translate(520, 110)">
    <!-- Intro -->
    <text x="0" y="0" fill="#bd00ff" font-family="ui-monospace, monospace" font-size="14" letter-spacing="3" filter="url(#softGlow)">&gt; INITIALIZING_QUANTUM_PROFILE...</text>
    
    <!-- Name with RGB Split Glitch -->
    <g transform="translate(0, 50)" filter="url(#glitch)">
      <text x="4" y="0" fill="#ff0055" font-family="ui-monospace, monospace" font-size="56" font-weight="bold" opacity="0.7">Sanyam Singla</text>
      <text x="-4" y="0" fill="#00f2ff" font-family="ui-monospace, monospace" font-size="56" font-weight="bold" opacity="0.7">Sanyam Singla</text>
      <text x="0" y="0" fill="url(#cyberGrad)" font-family="ui-monospace, monospace" font-size="56" font-weight="bold" filter="url(#bloom)">Sanyam Singla</text>
    </g>

    <!-- Role Terminal -->
    <rect x="0" y="80" width="600" height="36" rx="6" fill="#050810" stroke="url(#cyberGrad)" stroke-width="1" opacity="0.9"/>
    <circle cx="16" cy="98" r="4" fill="#ff5555"/>
    <circle cx="30" cy="98" r="4" fill="#ffbd2e"/>
    <circle cx="44" cy="98" r="4" fill="#00ff9d"/>
    <text x="70" y="102" fill="#8a9ba8" font-family="ui-monospace, monospace" font-size="12">cat roles.txt</text>
    
    <g transform="translate(70, 130)">
      <text x="0" y="0" fill="#00f2ff" font-family="ui-monospace, monospace" font-size="18" font-weight="bold" opacity="0" filter="url(#softGlow)">
        <animate attributeName="opacity" values="0;1;1;0;0" keyTimes="0;0.1;0.3;0.4;1" dur="6s" repeatCount="indefinite"/>
        &gt; AI Engineer &amp; Researcher
      </text>
      <text x="0" y="0" fill="#bd00ff" font-family="ui-monospace, monospace" font-size="18" font-weight="bold" opacity="0" filter="url(#softGlow)">
        <animate attributeName="opacity" values="0;0;1;1;0;0" keyTimes="0;0.25;0.35;0.6;0.7;1" dur="6s" repeatCount="indefinite"/>
        &gt; Full Stack Developer
      </text>
      <text x="0" y="0" fill="#00ff9d" font-family="ui-monospace, monospace" font-size="18" font-weight="bold" opacity="0" filter="url(#softGlow)">
        <animate attributeName="opacity" values="0;0;0;1;1;0" keyTimes="0;0.55;0.65;0.75;0.95;1" dur="6s" repeatCount="indefinite"/>
        &gt; Data Analyst &amp; Open Source
      </text>
      <rect x="0" y="-16" width="10" height="20" fill="#00f2ff" opacity="0">
        <animate attributeName="opacity" values="0;1;0" dur="0.8s" repeatCount="indefinite"/>
        <animate attributeName="x" values="0;260;190;320;0" keyTimes="0;0.1;0.35;0.75;1" dur="6s" repeatCount="indefinite"/>
      </rect>
    </g>

    <!-- Quick Stats Grid -->
    <g transform="translate(0, 180)">
      <path d="M 10 0 H 280 V 80 H 10 A 10 10 0 0 1 0 70 V 10 A 10 10 0 0 1 10 0 Z" fill="url(#hudGlass)" stroke="url(#cyberGrad)" stroke-width="1" opacity="0.9"/>
      <text x="15" y="25" fill="#4a5568" font-family="ui-monospace, monospace" font-size="10">FOCUS</text>
      <text x="15" y="50" fill="#ffffff" font-family="ui-monospace, monospace" font-size="14">AI-native Products</text>
      <text x="15" y="68" fill="#8a9ba8" font-family="ui-monospace, monospace" font-size="11">&amp; LLM Systems</text>
      <rect x="0" y="0" width="3" height="80" fill="#00f2ff" filter="url(#bloom)">
        <animate attributeName="opacity" values="0.5;1;0.5" dur="2s" repeatCount="indefinite"/>
      </rect>
      
      <path d="M 310 0 H 580 V 80 H 310 A 10 10 0 0 1 300 70 V 10 A 10 10 0 0 1 310 0 Z" fill="url(#hudGlass)" stroke="url(#cyberGrad)" stroke-width="1" opacity="0.9"/>
      <text x="315" y="25" fill="#4a5568" font-family="ui-monospace, monospace" font-size="10">EDUCATION</text>
      <text x="315" y="50" fill="#ffffff" font-family="ui-monospace, monospace" font-size="14">B.E. CSE</text>
      <text x="315" y="68" fill="#8a9ba8" font-family="ui-monospace, monospace" font-size="11">Chandigarh University</text>
      <rect x="300" y="0" width="3" height="80" fill="#bd00ff" filter="url(#bloom)">
        <animate attributeName="opacity" values="0.5;1;0.5" dur="2s" begin="0.5s" repeatCount="indefinite"/>
      </rect>
    </g>

    <!-- HYPER-ADVANCED 3D NEURAL STACK MAP -->
    <g transform="translate(0, 290)">
      <text x="0" y="0" fill="#bd00ff" font-family="ui-monospace, monospace" font-size="12" letter-spacing="2" filter="url(#softGlow)">// NEURAL_STACK_MAP [LIVE]</text>
      
      <!-- Localized 3D Grid Floor for Stack -->
      <g transform="translate(0, 50)">
        <rect x="-50" y="0" width="600" height="100" fill="url(#perspectiveGrid)" opacity="0.3" mask="url(#gridFade)"/>
      </g>

      <g transform="translate(0, 25)">
        <!-- Deep Synapse Connections -->
        <path d="M 50 0 Q 100 -30 150 -20 T 250 0 T 350 -20 T 450 0" fill="none" stroke="#00f2ff" stroke-width="1.5" opacity="0.5" stroke-dasharray="4 4">
          <animate attributeName="stroke-dashoffset" values="0;-16" dur="1s" repeatCount="indefinite"/>
        </path>
        <path d="M 50 30 Q 100 80 150 50 T 250 30 T 350 50 T 450 30" fill="none" stroke="#bd00ff" stroke-width="1.5" opacity="0.5" stroke-dasharray="4 4">
          <animate attributeName="stroke-dashoffset" values="0;16" dur="1.2s" repeatCount="indefinite"/>
        </path>
        <!-- Secondary hidden paths for complex routing -->
        <path d="M 50 0 Q 150 50 250 0 T 450 0" fill="none" stroke="#00ff9d" stroke-width="1" opacity="0.3" stroke-dasharray="2 6">
          <animate attributeName="stroke-dashoffset" values="0;-8" dur="0.8s" repeatCount="indefinite"/>
        </path>

        <!-- High-Speed Multi-Color Data Packets -->
        <circle r="4" fill="#ffffff" filter="url(#bloom)">
          <animateMotion dur="2s" repeatCount="indefinite" path="M 50 0 Q 100 -30 150 -20 T 250 0 T 350 -20 T 450 0"/>
        </circle>
        <circle r="3" fill="#00f2ff" filter="url(#bloom)">
          <animateMotion dur="2.5s" begin="0.5s" repeatCount="indefinite" path="M 50 30 Q 100 80 150 50 T 250 30 T 350 50 T 450 30"/>
        </circle>
        <circle r="2.5" fill="#bd00ff" filter="url(#bloom)">
          <animateMotion dur="1.8s" begin="1s" repeatCount="indefinite" path="M 450 0 Q 350 -20 250 0 T 50 0"/>
        </circle>
        <circle r="2" fill="#00ff9d" filter="url(#bloom)">
          <animateMotion dur="3s" begin="1.5s" repeatCount="indefinite" path="M 450 30 Q 350 50 250 30 T 50 30"/>
        </circle>
        <circle r="1.5" fill="#ffffff" filter="url(#bloom)">
          <animateMotion dur="4s" begin="0.2s" repeatCount="indefinite" path="M 50 0 Q 150 50 250 0 T 450 0"/>
        </circle>

        <!-- Floating Holographic Nodes (3D Bobbing + Pulse) -->
        <g font-family="ui-monospace, monospace" font-size="10" text-anchor="middle">
          
          <!-- Node 1: Python -->
          <g transform="translate(50, 0)">
            <g>
              <animateTransform attributeName="transform" type="translate" values="0,0; 0,-4; 0,0" dur="3s" repeatCount="indefinite"/>
              <polygon points="-30,12 30,12 20,35 -20,35" fill="url(#holoReflect)" opacity="0.6"/>
              <rect x="-30" y="-12" width="60" height="24" rx="4" fill="#050810" stroke="#00f2ff"/>
              <text y="4" fill="#00f2ff">Python</text>
              <rect x="-30" y="-12" width="60" height="24" rx="4" fill="none" stroke="#00f2ff" stroke-width="2" opacity="0">
                <animate attributeName="opacity" values="0;0.8;0" dur="2s" repeatCount="indefinite"/>
              </rect>
            </g>
          </g>

          <!-- Node 2: React.js -->
          <g transform="translate(150, -20)">
            <g>
              <animateTransform attributeName="transform" type="translate" values="0,0; 0,-5; 0,0" dur="3.5s" begin="0.3s" repeatCount="indefinite"/>
              <polygon points="-35,12 35,12 25,35 -25,35" fill="url(#holoReflect)" opacity="0.6"/>
              <rect x="-35" y="-12" width="70" height="24" rx="4" fill="#050810" stroke="#00f2ff"/>
              <text y="4" fill="#00f2ff">React.js</text>
              <circle cx="0" cy="0" r="15" fill="none" stroke="#00f2ff" stroke-width="1" opacity="0">
                <animate attributeName="r" values="10;25;10" dur="2.5s" begin="0.3s" repeatCount="indefinite"/>
                <animate attributeName="opacity" values="0.8;0;0.8" dur="2.5s" begin="0.3s" repeatCount="indefinite"/>
              </circle>
            </g>
          </g>

          <!-- Node 3: Next.js -->
          <g transform="translate(250, 0)">
            <g>
              <animateTransform attributeName="transform" type="translate" values="0,0; 0,-6; 0,0" dur="4s" begin="0.6s" repeatCount="indefinite"/>
              <polygon points="-35,12 35,12 25,35 -25,35" fill="url(#holoReflect2)" opacity="0.6"/>
              <rect x="-35" y="-12" width="70" height="24" rx="4" fill="#050810" stroke="#bd00ff"/>
              <text y="4" fill="#bd00ff">Next.js</text>
              <rect x="-35" y="-14" width="70" height="3" fill="#bd00ff" opacity="0">
                <animate attributeName="opacity" values="0;1;0" dur="1.5s" begin="0.6s" repeatCount="indefinite"/>
              </rect>
            </g>
          </g>

          <!-- Node 4: Node.js -->
          <g transform="translate(350, -20)">
            <g>
              <animateTransform attributeName="transform" type="translate" values="0,0; 0,-4; 0,0" dur="3.2s" begin="0.9s" repeatCount="indefinite"/>
              <polygon points="-35,12 35,12 25,35 -25,35" fill="url(#holoReflect2)" opacity="0.6"/>
              <rect x="-35" y="-12" width="70" height="24" rx="4" fill="#050810" stroke="#bd00ff"/>
              <text y="4" fill="#bd00ff">Node.js</text>
              <path d="M -20 0 L 20 0" stroke="#bd00ff" stroke-width="2" opacity="0">
                <animate attributeName="opacity" values="0;1;0" dur="1.8s" begin="0.9s" repeatCount="indefinite"/>
                <animate attributeName="d" values="M -20 0 L 20 0; M 20 0 L -20 0; M -20 0 L 20 0" dur="1.8s" begin="0.9s" repeatCount="indefinite"/>
              </path>
            </g>
          </g>

          <!-- Node 5: TypeScript -->
          <g transform="translate(450, 0)">
            <g>
              <animateTransform attributeName="transform" type="translate" values="0,0; 0,-7; 0,0" dur="4.5s" begin="1.2s" repeatCount="indefinite"/>
              <polygon points="-40,12 40,12 30,35 -30,35" fill="url(#holoReflect3)" opacity="0.6"/>
              <rect x="-40" y="-12" width="80" height="24" rx="4" fill="#050810" stroke="#00ff9d"/>
              <text y="4" fill="#00ff9d">TypeScript</text>
              <rect x="-40" y="-12" width="80" height="24" rx="4" fill="#00ff9d" opacity="0">
                <animate attributeName="opacity" values="0;0.3;0" dur="2s" begin="1.2s" repeatCount="indefinite"/>
              </rect>
            </g>
          </g>

          <!-- Node 6: MongoDB -->
          <g transform="translate(50, 30)">
            <g>
              <animateTransform attributeName="transform" type="translate" values="0,0; 0,-5; 0,0" dur="3.8s" begin="0.2s" repeatCount="indefinite"/>
              <polygon points="-35,12 35,12 25,35 -25,35" fill="url(#holoReflect)" opacity="0.6"/>
              <rect x="-35" y="-12" width="70" height="24" rx="4" fill="#050810" stroke="#00f2ff"/>
              <text y="4" fill="#00f2ff">MongoDB</text>
              <circle cx="0" cy="0" r="3" fill="#00f2ff" filter="url(#bloom)">
                <animate attributeName="opacity" values="0.5;1;0.5" dur="1.5s" begin="0.2s" repeatCount="indefinite"/>
              </circle>
            </g>
          </g>

          <!-- Node 7: Docker -->
          <g transform="translate(150, 50)">
            <g>
              <animateTransform attributeName="transform" type="translate" values="0,0; 0,-4; 0,0" dur="3.6s" begin="0.5s" repeatCount="indefinite"/>
              <polygon points="-35,12 35,12 25,35 -25,35" fill="url(#holoReflect2)" opacity="0.6"/>
              <rect x="-35" y="-12" width="70" height="24" rx="4" fill="#050810" stroke="#bd00ff"/>
              <text y="4" fill="#bd00ff">Docker</text>
              <path d="M -20 5 L 20 5" stroke="#bd00ff" stroke-width="1" opacity="0">
                <animate attributeName="opacity" values="0;1;0" dur="2s" begin="0.5s" repeatCount="indefinite"/>
              </path>
            </g>
          </g>

          <!-- Node 8: AWS -->
          <g transform="translate(250, 30)">
            <g>
              <animateTransform attributeName="transform" type="translate" values="0,0; 0,-6; 0,0" dur="4.2s" begin="0.8s" repeatCount="indefinite"/>
              <polygon points="-30,12 30,12 20,35 -20,35" fill="url(#holoReflect3)" opacity="0.6"/>
              <rect x="-30" y="-12" width="60" height="24" rx="4" fill="#050810" stroke="#00ff9d"/>
              <text y="4" fill="#00ff9d">AWS</text>
              <circle cx="0" cy="0" r="10" fill="none" stroke="#00ff9d" stroke-width="1" opacity="0">
                <animate attributeName="r" values="5;20;5" dur="2.2s" begin="0.8s" repeatCount="indefinite"/>
                <animate attributeName="opacity" values="0.6;0;0.6" dur="2.2s" begin="0.8s" repeatCount="indefinite"/>
              </circle>
            </g>
          </g>

          <!-- Node 9: Flutter -->
          <g transform="translate(350, 50)">
            <g>
              <animateTransform attributeName="transform" type="translate" values="0,0; 0,-5; 0,0" dur="3.4s" begin="1.1s" repeatCount="indefinite"/>
              <polygon points="-30,12 30,12 20,35 -20,35" fill="url(#holoReflect)" opacity="0.6"/>
              <rect x="-30" y="-12" width="60" height="24" rx="4" fill="#050810" stroke="#00f2ff"/>
              <text y="4" fill="#00f2ff">Flutter</text>
              <rect x="-30" y="-12" width="60" height="24" rx="4" fill="#00f2ff" opacity="0">
                <animate attributeName="opacity" values="0;0.2;0" dur="1.8s" begin="1.1s" repeatCount="indefinite"/>
              </rect>
            </g>
          </g>

          <!-- Node 10: LLM APIs -->
          <g transform="translate(450, 30)">
            <g>
              <animateTransform attributeName="transform" type="translate" values="0,0; 0,-8; 0,0" dur="4.8s" begin="1.4s" repeatCount="indefinite"/>
              <polygon points="-40,12 40,12 30,35 -30,35" fill="url(#holoReflect2)" opacity="0.6"/>
              <rect x="-40" y="-12" width="80" height="24" rx="4" fill="#050810" stroke="#bd00ff"/>
              <text y="4" fill="#bd00ff">LLM APIs</text>
              <circle cx="0" cy="0" r="5" fill="#bd00ff" filter="url(#bloom)" opacity="0.5">
                <animate attributeName="opacity" values="0.2;0.8;0.2" dur="1.2s" begin="1.4s" repeatCount="indefinite"/>
              </circle>
            </g>
          </g>

        </g>
      </g>
    </g>
  </g>

  <!-- System Diagnostics & 3D Rotating Core -->
  <g transform="translate(880, 500)" font-family="ui-monospace, monospace" opacity="0.8">
    <text x="0" y="0" fill="#4a5568" font-size="9" letter-spacing="1">SYS_DIAGNOSTICS</text>
    
    <!-- 3D Rotating Cube Core -->
    <g transform="translate(40, 50)">
      <g>
        <animateTransform attributeName="transform" type="rotate" values="0;360" dur="8s" repeatCount="indefinite"/>
        <rect x="-20" y="-20" width="40" height="40" fill="none" stroke="#00f2ff" stroke-width="1.5" filter="url(#softGlow)" transform="skewX(-15) scale(1, 0.8)"/>
        <rect x="-20" y="-20" width="40" height="40" fill="none" stroke="#bd00ff" stroke-width="1.5" filter="url(#softGlow)" transform="skewX(15) scale(1, 0.8)"/>
        <rect x="-10" y="-10" width="20" height="20" fill="#00ff9d" opacity="0.3" filter="url(#bloom)">
          <animate attributeName="opacity" values="0.2;0.6;0.2" dur="1.5s" repeatCount="indefinite"/>
        </rect>
      </g>
    </g>
    
    <g transform="translate(80, 12)">
      <text x="0" y="8" fill="#8a9ba8" font-size="8">CPU</text>
      <rect x="25" y="3" width="100" height="4" fill="#0a0f1a" rx="2"/>
      <rect x="25" y="3" width="0" height="4" fill="#00f2ff" rx="2">
        <animate attributeName="width" values="40;85;55;70;45;80;40" dur="4s" repeatCount="indefinite"/>
      </rect>
      <text x="0" y="20" fill="#8a9ba8" font-size="8">GPU</text>
      <rect x="25" y="15" width="100" height="4" fill="#0a0f1a" rx="2"/>
      <rect x="25" y="15" width="0" height="4" fill="#bd00ff" rx="2">
        <animate attributeName="width" values="60;90;50;75;65;85;60" dur="3.5s" repeatCount="indefinite"/>
      </rect>
      <text x="0" y="32" fill="#8a9ba8" font-size="8">NET</text>
      <rect x="25" y="27" width="100" height="4" fill="#0a0f1a" rx="2"/>
      <rect x="25" y="27" width="0" height="4" fill="#00ff9d" rx="2">
        <animate attributeName="width" values="30;70;45;60;35;65;30" dur="3s" repeatCount="indefinite"/>
      </rect>
    </g>
    
    <!-- Radar Sweep -->
    <g transform="translate(40, 110)">
      <circle cx="0" cy="0" r="25" fill="none" stroke="#00f2ff" stroke-width="1" opacity="0.3"/>
      <circle cx="0" cy="0" r="15" fill="none" stroke="#00f2ff" stroke-width="1" opacity="0.2"/>
      <path d="M 0 0 L 25 0 A 25 25 0 0 1 17.6 17.6 Z" fill="#00ff9d" opacity="0.4" filter="url(#softGlow)">
        <animateTransform attributeName="transform" type="rotate" values="0;360" dur="4s" repeatCount="indefinite"/>
      </path>
    </g>
  </g>

  <!-- Super Interactive Holographic Buttons -->
  <g transform="translate(600, 570)" font-family="ui-monospace, monospace" font-size="12" font-weight="bold" text-anchor="middle">
    <a href="https://github.com/SAM10101010" target="_blank">
      <g class="btn-group" transform="translate(-160, 0)" style="color:#00f2ff">
        <rect x="-70" y="-22" width="140" height="44" rx="22" fill="url(#hudGlass)" stroke="#00f2ff" stroke-width="1.5" filter="url(#bloom)"/>
        <rect class="btn-shine" x="-70" y="-22" width="140" height="44" rx="22" fill="url(#shineSweep)" opacity="0" style="pointer-events: none;"/>
        <path class="btn-icon" d="M-12 -8c-4.4 0-8 3.6-8 8 0 3.5 2.3 6.5 5.5 7.6.4.1.5-.2.5-.4v-1.4c-2.2.5-2.7-1.1-2.7-1.1-.4-.9-.9-1.2-.9-1.2-.7-.5.1-.5.1-.5.8.1 1.2.8 1.2.8.7 1.2 1.8.8 2.2.7.1-.5.3-.8.5-1-1.8-.2-3.6-.9-3.6-3.9 0-.9.3-1.6.8-2.1-.1-.2-.4-1 .1-2.1 0 0 .7-.2 2.2.8.6-.2 1.3-.3 2-.3.7 0 1.4.1 2 .3 1.5-1 2.2-.8 2.2-.8.4 1.1.1 1.9.1 2.1.5.6.8 1.3.8 2.1 0 3.1-1.8 3.7-3.6 3.9.3.3.5.8.5 1.4v2.1c0 .2.1.5.5.4 3.2-1.1 5.5-4.1 5.5-7.6 0-4.4-3.6-8-8-8z" fill="#00f2ff" transform="scale(0.8) translate(-40, -2)"/>
        <text x="10" y="4" fill="#00f2ff">GITHUB</text>
      </g>
    </a>
    <a href="https://linkedin.com/in/sanyam-singla-41673b292" target="_blank">
      <g class="btn-group" transform="translate(0, 0)" style="color:#bd00ff">
        <rect x="-70" y="-22" width="140" height="44" rx="22" fill="url(#hudGlass)" stroke="#bd00ff" stroke-width="1.5" filter="url(#bloom)"/>
        <rect class="btn-shine" x="-70" y="-22" width="140" height="44" rx="22" fill="url(#shineSweep)" opacity="0" style="pointer-events: none;"/>
        <path class="btn-icon" d="M-20 -15h4v4h-4zm0 6h4v14h-4zm6 -6h4v2c1-1.5 2.5-2.5 5-2.5 5 0 6 3 6 7.5v8h-4v-7c0-2-.5-3.5-2.5-3.5s-3 1.5-3 3.5v7h-4v-20z" fill="#bd00ff" transform="scale(0.8) translate(-30, 0)"/>
        <text x="10" y="4" fill="#bd00ff">LINKEDIN</text>
      </g>
    </a>
    <a href="mailto:sanyamsingla36@gmail.com" target="_blank">
      <g class="btn-group" transform="translate(160, 0)" style="color:#00ff9d">
        <rect x="-70" y="-22" width="140" height="44" rx="22" fill="url(#hudGlass)" stroke="#00ff9d" stroke-width="1.5" filter="url(#bloom)"/>
        <rect class="btn-shine" x="-70" y="-22" width="140" height="44" rx="22" fill="url(#shineSweep)" opacity="0" style="pointer-events: none;"/>
        <path class="btn-icon" d="M-20 -10h18v12h-18zm0 0l9 6 9-6" fill="none" stroke="#00ff9d" stroke-width="1.5" stroke-linecap="round" stroke-linejoin="round" transform="scale(0.8) translate(-20, -2)"/>
        <text x="15" y="4" fill="#00ff9d">EMAIL</text>
      </g>
    </a>
  </g>

  <!-- Animated Background Data -->
  <g opacity="0.15" font-family="ui-monospace, monospace" font-size="10" fill="#00f2ff">
    <text x="100" y="100">10110010</text>
    <text x="1050" y="180">0xFF1A</text>
  </g>
</svg>
